<svg xmlns="http://www.w3.org/2000/svg" viewBox="0 0 3000 3000" width="3000" height="3000"><g transform="translate(448.5 537.0) rotate(0.0 1074.75 956.25) scale(1.6174167833609612 1.617657631749227)"><svg width="1328.971" height="1182.265" viewBox="0 0 1328.971 1182.265"><rect fill="#e3e5e5" height="1167.265" rx="90" width="1313.971" x="7.5" y="7.5"/><path d="M1231.471 1182.265H97.5c-53.762 0-97.5-43.739-97.5-97.5V97.5C0 43.738 43.738 0 97.5 0h1133.971c53.762 0 97.5 43.738 97.5 97.5v987.265c0 53.762-43.738 97.5-97.5 97.5zM97.5 15C52.009 15 15 52.009 15 97.5v987.265c0 45.49 37.009 82.5 82.5 82.5h1133.971c45.491 0 82.5-37.01 82.5-82.5V97.5c0-45.491-37.009-82.5-82.5-82.5z" fill="#e3e5e5"/><path d="M567.477 1182.265a7.5 7.5 0 0 1-7.5-7.5V196.813a7.5 7.5 0 0 1 15 0v977.952a7.5 7.5 0 0 1-7.5 7.5z" fill="#B7B7B7"/><path d="M97.5 7.5h1133.971c49.672 0 90 40.328 90 90v99.313H7.5V97.5c0-49.672 40.328-90 90-90z" fill="#5917C1"/><path d="M1321.471 204.313H7.5a7.5 7.5 0 0 1-7.5-7.5V97.5C0 43.738 43.738 0 97.5 0h1133.971c53.762 0 97.5 43.738 97.5 97.5v99.313a7.5 7.5 0 0 1-7.5 7.5zM15 189.313h1298.971V97.5c0-45.491-37.009-82.5-82.5-82.5H97.5C52.009 15 15 52.009 15 97.5z" fill="#5917C1"/><circle cx="1227.532" cy="102.156" fill="#e3e5e5" r="44.618"/><circle cx="1113.067" cy="102.156" fill="#e3e5e5" r="44.618"/><circle cx="998.603" cy="102.156" fill="#e3e5e5" r="44.618"/><g fill="#B7B7B7"><path d="M147.015 326.565H80.07a7.5 7.5 0 0 1 0-15h66.945a7.5 7.5 0 0 1 0 15zm341.704 0H196.601a7.5 7.5 0 0 1 0-15H488.72a7.5 7.5 0 0 1 0 15zM263.546 431.343h-66.945a7.5 7.5 0 0 1 0-15h66.945a7.5 7.5 0 0 1 0 15zm225.173 0H313.13a7.5 7.5 0 0 1 0-15h175.589a7.5 7.5 0 0 1 0 15zM263.546 640.9h-66.945a7.5 7.5 0 0 1 0-15h66.945a7.5 7.5 0 0 1 0 15zm225.173 0H313.13a7.5 7.5 0 0 1 0-15h175.589a7.5 7.5 0 0 1 0 15zM263.546 955.234h-66.945a7.5 7.5 0 0 1 0-15h66.945a7.5 7.5 0 0 1 0 15zm225.173 0H313.13a7.5 7.5 0 0 1 0-15h175.589a7.5 7.5 0 0 1 0 15zM147.015 536.121H80.07a7.5 7.5 0 0 1 0-15h66.945a7.5 7.5 0 0 1 0 15zm341.704 0H196.601a7.5 7.5 0 0 1 0-15H488.72a7.5 7.5 0 0 1 0 15zm0 209.557H196.601a7.5 7.5 0 0 1 0-15H488.72a7.5 7.5 0 0 1 0 15zm0 104.778H200.816a7.5 7.5 0 0 1 0-15h287.903a7.5 7.5 0 0 1 0 15zm-341.704 209.557H80.07a7.5 7.5 0 0 1 0-15h66.945a7.5 7.5 0 0 1 0 15zm341.704 0H196.601a7.5 7.5 0 0 1 0-15H488.72a7.5 7.5 0 0 1 0 15z"/></g></svg></g><g transform="translate(210.0 2115.0) rotate(0.0 349.5 204.75) scale(2.5737608942990646 2.5646967457474257)"><svg width="271.587" height="159.668" viewBox="0 0 271.587 159.668"><rect fill="#EA2688" height="159.668" rx="34.594" width="271.587"/><g fill="#B7006D"><path d="M97.629 124.898c-.836 0-1.684-.21-2.463-.652L24.541 84.183a5.001 5.001 0 0 1 0-8.698l70.625-40.063a5 5 0 1 1 4.934 8.698L37.141 79.835 100.1 115.55a5 5 0 0 1-2.472 9.35zm76.329 0a5 5 0 0 1-2.472-9.35l62.959-35.715-62.958-35.715a5 5 0 1 1 4.934-8.698l70.626 40.063a5.001 5.001 0 0 1 0 8.698l-70.625 40.064a4.978 4.978 0 0 1-2.463.652zm-58.277 17.637a5 5 0 0 1-4.68-6.757l43.266-115.4a5 5 0 1 1 9.363 3.511l-43.266 115.4a5.002 5.002 0 0 1-4.683 3.246z"/></g></svg></g><g transform="translate(768.0 2410.5) rotate(0.0 540.75 186.0) scale(1.3845858404813725 1.379821958456973)"><svg width="781.1" height="269.6" viewBox="0 0 781.1 269.6"><path d="M27.5 7.5h726.1c11 0 20 9 20 20v214.6c0 11-9 20-20 20H27.5c-11 0-20-9-20-20V27.5c0-11 9-20 20-20z" fill="#F62"/><path d="M753.6 269.6H27.5C12.3 269.6 0 257.3 0 242.1V27.5C0 12.3 12.3 0 27.5 0h726.1c15.2 0 27.5 12.3 27.5 27.5v214.6c0 15.2-12.3 27.5-27.5 27.5zM27.5 15C20.6 15 15 20.6 15 27.5v214.6c0 6.9 5.6 12.5 12.5 12.5h726.1c6.9 0 12.5-5.6 12.5-12.5V27.5c0-6.9-5.6-12.5-12.5-12.5z" fill="#F62"/><g fill="#FFF"><path d="M556.1 197.1c-2 0-3.9-.8-5.3-2.2-2-2-2.7-5-1.8-7.7l8-24.1c-5.5-8.7-8.4-18.4-8.4-28.3 0-34.3 34.7-62.2 77.4-62.2s77.4 27.9 77.4 62.2S668.7 197 626 197c-14.5 0-28.5-3.2-40.8-9.3l-26.8 8.9c-.7.3-1.5.5-2.3.5zm29.8-25c1.2 0 2.5.3 3.6.9 10.7 5.9 23.3 9 36.5 9 34.4 0 62.4-21.2 62.4-47.2s-28-47.2-62.4-47.2-62.4 21.2-62.4 47.2c0 7.9 2.7 15.8 7.8 22.7 1.4 2 1.8 4.5 1.1 6.8l-4.5 13.4 15.6-5.2c.7-.2 1.5-.4 2.3-.4zm-143.6 25H332.8c-4.1 0-7.5-3.4-7.5-7.5V80.1c0-4.1 3.4-7.5 7.5-7.5h109.5c4.1 0 7.5 3.4 7.5 7.5v109.5c0 4.1-3.4 7.5-7.5 7.5zm-102-15h94.5V87.6h-94.5zm-215.6 24.1h-.4c-3.2-.1-5.9-2.3-6.8-5.3L78 73.1c-.8-2.7-.1-5.6 1.9-7.5 2-2 4.9-2.7 7.5-1.9l127.8 39.6c3 .9 5.1 3.7 5.3 6.8s-1.7 6.1-4.6 7.3l-59.4 24.8-24.8 59.4c-1.2 2.8-3.9 4.6-7 4.6zM96.5 82.3l29.2 94.5 18-43.2c.8-1.8 2.2-3.3 4-4l43.2-18z"/></g></svg></g><g transform="translate(1461.0 1363.5) rotate(0.0 722.25 292.5) scale(1.2478964155266132 1.2494927273115615)"><svg width="1157.548" height="468.19" viewBox="0 0 1157.548 468.19"><rect fill="#5ac4ff" height="453.19" rx="60" width="1142.548" x="7.5" y="7.5"/><path d="M1090.048 468.19H67.5c-37.22 0-67.5-30.281-67.5-67.5V67.5C0 30.28 30.28 0 67.5 0h1022.548c37.22 0 67.5 30.28 67.5 67.5v333.19c0 37.22-30.28 67.5-67.5 67.5zM67.5 15C38.551 15 15 38.551 15 67.5v333.19c0 28.949 23.551 52.5 52.5 52.5h1022.548c28.949 0 52.5-23.551 52.5-52.5V67.5c0-28.949-23.551-52.5-52.5-52.5z" fill="#5ac4ff"/><path d="m338.211 460.69 296.818-231.805c20.464-15.982 48.354-18.604 71.438-6.717l41.768 21.509c24.371 12.55 53.943 8.874 74.5-9.259l82.526-72.797c15.177-13.388 37.8-13.869 53.532-1.139l191.255 154.756v85.452c0 33.137-26.863 60-60 60z" fill="#2471ED"/><path d="M1090.048 468.19H338.211a7.5 7.5 0 0 1-4.616-13.411l296.818-231.805c22.69-17.721 53.891-20.654 79.488-7.474l41.769 21.509c21.782 11.217 47.73 7.993 66.105-8.216l82.526-72.797a48.85 48.85 0 0 1 63.211-1.345l191.255 154.756a7.5 7.5 0 0 1 2.782 5.83v85.452c0 37.22-30.28 67.5-67.5 67.5zm-730.049-15h730.049c28.949 0 52.5-23.551 52.5-52.5v-81.873L954.075 166.313a33.888 33.888 0 0 0-43.853.933l-82.526 72.797c-23.042 20.325-55.58 24.369-82.895 10.303l-41.769-21.509c-20.413-10.511-45.294-8.171-63.388 5.96L359.998 453.191z" fill="#2471ED"/><g fill="#ffd215"><circle cx="248.848" cy="160.414" r="88.838"/><path d="M248.848 256.752c-53.121 0-96.338-43.217-96.338-96.338s43.217-96.338 96.338-96.338 96.338 43.217 96.338 96.338-43.217 96.338-96.338 96.338zm0-177.676c-44.85 0-81.338 36.488-81.338 81.338s36.488 81.338 81.338 81.338 81.338-36.488 81.338-81.338-36.488-81.338-81.338-81.338z"/></g></svg></g><g transform="translate(1128.0 85.5) rotate(0.0 -124.5 125.25) scale(-2.1662911182064155 2.173290648343354)"><svg width="114.943" height="115.263" viewBox="0 0 114.943 115.263"><g><path d="M107.443 107.763c-.037-73.795-72.938-60.165-54.568-36.12C72.443 97.257 131.492 28.36 27.89 25.976" fill="none" stroke="#004ebf" stroke-linecap="round" stroke-linejoin="round" stroke-width="15"/><circle cx="23.105" cy="23.105" r="23.1" fill="#004ebf"/></g></svg></g><g transform="translate(2620.5 817.5) rotate(-120.95502301487635 -123.75 402.75) scale(-2.5626954378844045 2.5728494907003707)"><svg width="96.578" height="313.077" viewBox="0 0 96.578 313.077"><g fill="#111"><path d="m77.463 27.71-12.907-2.346a5.234 5.234 0 0 0-5.401 2.419L39.66 59.673a20.932 20.932 0 0 0-2.891 8.163L7.643 287.187c-1.142 8.597 4.67 16.576 13.202 18.126 8.56 1.556 16.826-3.907 18.752-12.391L88.558 77.201c.639-2.816.689-5.734.146-8.57l-7.037-36.756a5.235 5.235 0 0 0-4.204-4.165z"/><path d="M23.804 313.081c-1.418 0-2.854-.127-4.3-.389C7.013 310.422-1.463 298.786.208 286.2L29.335 66.849a28.255 28.255 0 0 1 3.927-11.088l19.494-31.889c2.723-4.454 8.002-6.82 13.14-5.887l12.907 2.346c5.136.934 9.247 5.006 10.229 10.133l7.037 36.757a28.272 28.272 0 0 1-.198 11.64L46.91 294.582a23.699 23.699 0 0 1-23.107 18.499zm40.94-280.06L46.06 63.585a13.347 13.347 0 0 0-1.855 5.239l-29.127 219.35a8.74 8.74 0 0 0 7.109 9.76 8.73 8.73 0 0 0 10.097-6.671L81.245 75.541c.413-1.818.444-3.669.094-5.499l-6.745-35.23-9.849-1.79zm11.378 2.068h.01z"/><path d="M71.018 34.038a7.499 7.499 0 0 1-7.388-8.842l3.459-19.037a7.5 7.5 0 0 1 14.759 2.682l-3.46 19.037a7.502 7.502 0 0 1-7.37 6.16z"/></g><path d="M42.675 189.949a7.499 7.499 0 0 1-7.388-8.842l9.376-51.6c.741-4.075 4.65-6.78 8.72-6.038a7.499 7.499 0 0 1 6.038 8.72l-9.376 51.6a7.502 7.502 0 0 1-7.371 6.16z" fill="#111"/></svg></g><g transform="translate(1224.0 261.0) rotate(8.389471883763344 -534.75 442.5) scale(-2.1470773048207357 2.1427793179424475)"><svg width="498.119" height="413.015" viewBox="0 0 498.119 413.015"><ellipse cx="222.213" cy="206.508" fill="#2471ed" rx="222.391" ry="206.276" transform="matrix(.9937 -.1121 .1121 .9937 -21.7483 26.211)"/><path d="m247.22 86.88-140.278 15.824c-46.455 5.241-80.177 47.537-74.936 93.993l6.966 61.749c5.241 46.455 47.537 80.177 93.993 74.936l140.278-15.824c46.455-5.241 80.177-47.537 74.936-93.993l-6.966-61.749c-5.241-46.455-47.537-80.176-93.993-74.936z" fill="#FFF"/><path d="m446.706 108.654-31.018 3.499c-23.386 2.638-38.645 37.569-34.081 78.02s27.22 71.105 50.606 68.467l31.018-3.499z" fill="#2471ed"/><ellipse cx="454.968" cy="181.898" fill="#2471ed" rx="42.612" ry="73.708" transform="matrix(.9937 -.1121 .1121 .9937 -17.5226 52.147)"/><g fill="#004ebf"><path d="M460.379 262.802c-26.481.003-50.328-32.036-55.208-75.287-5.104-45.25 12.771-83.164 40.693-86.314 4.121-.464 7.829 2.496 8.293 6.612s-2.496 7.829-6.612 8.293c-18.913 2.134-31.492 34.065-27.47 69.727 4.023 35.662 23.389 63.978 42.313 61.855a7.5 7.5 0 1 1 1.681 14.905c-1.231.14-2.466.209-3.69.209z"/><path d="M429.333 266.302c-12.8 0-25.286-7.441-35.514-21.279-10.329-13.975-17.313-33.156-19.666-54.009-2.353-20.854.183-41.108 7.139-57.033 7.554-17.293 19.471-27.692 33.554-29.28l31.019-3.5a7.495 7.495 0 0 1 8.293 6.612 7.5 7.5 0 0 1-6.612 8.293l-31.019 3.5c-8.538.963-16.169 8.201-21.489 20.379-5.918 13.547-8.042 31.072-5.98 49.347s8.036 34.886 16.823 46.775c7.9 10.688 16.961 16.039 25.489 15.08l31.019-3.499c4.121-.462 7.829 2.496 8.293 6.612s-2.496 7.829-6.612 8.293l-31.019 3.499c-1.239.141-2.481.21-3.718.21z"/><ellipse cx="107.697" cy="207.718" rx="18.393" ry="31.77" transform="matrix(.9937 -.1121 .1121 .9937 -22.6058 13.3817)"/><ellipse cx="218.832" cy="195.181" rx="18.393" ry="31.77" transform="matrix(.9937 -.1121 .1121 .9937 -20.5 25.7606)"/><path d="M170.283 288.145c-5.155 0-10.125-1.646-14.227-4.751-4.94-3.74-8.036-9.134-8.719-15.187a7.5 7.5 0 1 1 14.905-1.681c.218 1.93 1.236 3.673 2.868 4.909 1.745 1.321 3.958 1.909 6.235 1.65 2.276-.257 4.304-1.321 5.71-2.998 1.316-1.568 1.92-3.494 1.703-5.424a7.5 7.5 0 0 1 6.612-8.293c4.116-.468 7.829 2.496 8.293 6.612.683 6.053-1.134 12-5.116 16.747-3.892 4.638-9.403 7.572-15.521 8.262-.917.102-1.832.154-2.743.154zm167.695 56.396a7.5 7.5 0 0 1-1.64-14.818l97.944-22.049 6.127-51.681c.488-4.114 4.221-7.055 8.331-6.565a7.5 7.5 0 0 1 6.565 8.331l-6.752 56.95a7.499 7.499 0 0 1-5.801 6.434l-103.121 23.214a7.552 7.552 0 0 1-1.653.184z"/><ellipse cx="316.352" cy="341.983" rx="30.351" ry="16.771" transform="matrix(.9749 -.2228 .2228 .9749 -68.2368 79.0716)"/></g></svg></g></svg>