<svg xmlns="http://www.w3.org/2000/svg" viewBox="0 0 600 500" width="600" height="500"><g transform="translate(51.0 -37.0) rotate(-89.99999999999962 249.5 286.5) scale(2.1997786996177937 2.19881425200023)"><svg width="226.841" height="260.595" viewBox="0 0 226.841 260.595"><linearGradient id="a"><stop offset="0" stop-color="#deeafe"/><stop offset="1" stop-color="#e9f1fe"/></linearGradient><linearGradient xmlns:xlink="http://www.w3.org/1999/xlink" id="f" gradientUnits="userSpaceOnUse" x1="135.136" x2="171.578" xlink:href="#a" y1="154.228" y2="154.228"/><linearGradient xmlns:xlink="http://www.w3.org/1999/xlink" id="g" gradientUnits="userSpaceOnUse" x1="135.125" x2="177.762" xlink:href="#a" y1="149.848" y2="149.848"/><linearGradient xmlns:xlink="http://www.w3.org/1999/xlink" id="h" gradientUnits="userSpaceOnUse" x1="135.108" x2="184.242" xlink:href="#a" y1="145.036" y2="145.036"/><linearGradient xmlns:xlink="http://www.w3.org/1999/xlink" id="i" gradientUnits="userSpaceOnUse" x1="91.271" x2="109.826" xlink:href="#a" y1="194.695" y2="194.695"/><linearGradient xmlns:xlink="http://www.w3.org/1999/xlink" id="j" gradientUnits="userSpaceOnUse" x1="85.812" x2="109.814" xlink:href="#a" y1="190.601" y2="190.601"/><linearGradient xmlns:xlink="http://www.w3.org/1999/xlink" id="k" gradientUnits="userSpaceOnUse" x1="79.542" x2="110.193" xlink:href="#a" y1="186.44" y2="186.44"/><linearGradient xmlns:xlink="http://www.w3.org/1999/xlink" id="l" gradientUnits="userSpaceOnUse" x1="74.084" x2="110.191" xlink:href="#a" y1="182.057" y2="182.057"/><linearGradient id="b"><stop offset="0" stop-color="#428dfc"/><stop offset="1" stop-color="#1d72d8"/></linearGradient><linearGradient xmlns:xlink="http://www.w3.org/1999/xlink" id="m" gradientUnits="userSpaceOnUse" x1="102.95" x2="161.592" xlink:href="#b" y1="127.087" y2="127.087"/><linearGradient xmlns:xlink="http://www.w3.org/1999/xlink" id="n" gradientUnits="userSpaceOnUse" x1="109.015" x2="154.888" xlink:href="#b" y1="97.182" y2="97.182"/><linearGradient xmlns:xlink="http://www.w3.org/1999/xlink" id="o" gradientUnits="userSpaceOnUse" x1="109.015" x2="154.888" xlink:href="#b" y1="157.344" y2="157.344"/><linearGradient id="c"><stop offset="0" stop-color="#eee"/><stop offset=".697" stop-color="#d6d7d8"/></linearGradient><linearGradient xmlns:xlink="http://www.w3.org/1999/xlink" id="p" gradientUnits="userSpaceOnUse" x1="192.678" x2="201.101" xlink:href="#c" y1="85.866" y2="85.866"/><linearGradient xmlns:xlink="http://www.w3.org/1999/xlink" id="q" gradientUnits="userSpaceOnUse" x1="191.659" x2="202.119" xlink:href="#c" y1="139.061" y2="139.061"/><linearGradient xmlns:xlink="http://www.w3.org/1999/xlink" id="r" gradientUnits="userSpaceOnUse" x1="191.659" x2="202.119" xlink:href="#c" y1="31.256" y2="31.256"/><linearGradient xmlns:xlink="http://www.w3.org/1999/xlink" id="s" gradientUnits="userSpaceOnUse" x1="209.284" x2="217.706" xlink:href="#c" y1="85.866" y2="85.866"/><linearGradient xmlns:xlink="http://www.w3.org/1999/xlink" id="t" gradientUnits="userSpaceOnUse" x1="208.265" x2="218.725" xlink:href="#c" y1="139.061" y2="139.061"/><linearGradient xmlns:xlink="http://www.w3.org/1999/xlink" id="u" gradientUnits="userSpaceOnUse" x1="208.265" x2="218.725" xlink:href="#c" y1="31.256" y2="31.256"/><linearGradient id="d"><stop offset="0" stop-color="#eee"/><stop offset="1" stop-color="#d6d7d8"/></linearGradient><linearGradient xmlns:xlink="http://www.w3.org/1999/xlink" id="v" gradientUnits="userSpaceOnUse" x1="0" x2="19.547" xlink:href="#d" y1="143.186" y2="143.186"/><linearGradient xmlns:xlink="http://www.w3.org/1999/xlink" id="w" gradientUnits="userSpaceOnUse" x1="0" x2="19.547" xlink:href="#d" y1="107.441" y2="107.441"/><linearGradient xmlns:xlink="http://www.w3.org/1999/xlink" id="x" gradientUnits="userSpaceOnUse" x1="0" x2="19.547" xlink:href="#d" y1="76.946" y2="76.946"/><linearGradient xmlns:xlink="http://www.w3.org/1999/xlink" id="y" gradientUnits="userSpaceOnUse" x1="0" x2="19.547" xlink:href="#d" y1="51.1" y2="51.1"/><linearGradient xmlns:xlink="http://www.w3.org/1999/xlink" id="z" gradientUnits="userSpaceOnUse" x1="0" x2="19.547" xlink:href="#c" y1="143.186" y2="143.186"/><linearGradient xmlns:xlink="http://www.w3.org/1999/xlink" id="A" gradientUnits="userSpaceOnUse" x1="0" x2="19.547" xlink:href="#c" y1="107.441" y2="107.441"/><linearGradient xmlns:xlink="http://www.w3.org/1999/xlink" id="B" gradientUnits="userSpaceOnUse" x1="0" x2="19.547" xlink:href="#c" y1="76.946" y2="76.946"/><linearGradient xmlns:xlink="http://www.w3.org/1999/xlink" id="C" gradientUnits="userSpaceOnUse" x1="0" x2="19.547" xlink:href="#c" y1="51.1" y2="51.1"/><linearGradient xmlns:xlink="http://www.w3.org/1999/xlink" id="D" gradientUnits="userSpaceOnUse" x1="57.707" x2="68.458" xlink:href="#a" y1="107.441" y2="107.441"/><linearGradient xmlns:xlink="http://www.w3.org/1999/xlink" id="E" gradientUnits="userSpaceOnUse" x1="42.706" x2="48.896" xlink:href="#a" y1="82.591" y2="82.591"/><linearGradient xmlns:xlink="http://www.w3.org/1999/xlink" id="F" gradientUnits="userSpaceOnUse" x1="28.371" x2="34.235" xlink:href="#a" y1="82.591" y2="82.591"/><linearGradient xmlns:xlink="http://www.w3.org/1999/xlink" id="G" gradientUnits="userSpaceOnUse" x1="198.723" x2="215.012" xlink:href="#d" y1="165.476" y2="165.476"/><linearGradient xmlns:xlink="http://www.w3.org/1999/xlink" id="H" gradientUnits="userSpaceOnUse" x1="198.723" x2="215.012" xlink:href="#d" y1="176.392" y2="176.392"/><linearGradient xmlns:xlink="http://www.w3.org/1999/xlink" id="I" gradientUnits="userSpaceOnUse" x1="198.723" x2="215.012" xlink:href="#d" y1="187.307" y2="187.307"/><linearGradient xmlns:xlink="http://www.w3.org/1999/xlink" id="J" gradientUnits="userSpaceOnUse" x1="198.723" x2="215.012" xlink:href="#d" y1="198.223" y2="198.223"/><linearGradient id="e"><stop offset="0" stop-color="#a1c3fc"/><stop offset="1" stop-color="#78a9ef"/></linearGradient><linearGradient xmlns:xlink="http://www.w3.org/1999/xlink" id="K" gradientUnits="userSpaceOnUse" x1="24.76" x2="137.324" xlink:href="#e" y1="196.82" y2="196.82"/><linearGradient xmlns:xlink="http://www.w3.org/1999/xlink" id="L" gradientUnits="userSpaceOnUse" x1="24.76" x2="137.324" xlink:href="#e" y1="211.649" y2="211.649"/><linearGradient xmlns:xlink="http://www.w3.org/1999/xlink" id="M" gradientUnits="userSpaceOnUse" x1="24.76" x2="137.324" xlink:href="#e" y1="182.01" y2="182.01"/><linearGradient xmlns:xlink="http://www.w3.org/1999/xlink" id="N" gradientUnits="userSpaceOnUse" x1="73.222" x2="95.69" xlink:href="#e" y1="241.411" y2="241.411"/><linearGradient xmlns:xlink="http://www.w3.org/1999/xlink" id="O" gradientUnits="userSpaceOnUse" x1="152.689" x2="161.592" xlink:href="#e" y1="214.774" y2="214.774"/><linearGradient xmlns:xlink="http://www.w3.org/1999/xlink" id="P" gradientUnits="userSpaceOnUse" x1="151.315" x2="162.966" xlink:href="#e" y1="243.17" y2="243.17"/><linearGradient xmlns:xlink="http://www.w3.org/1999/xlink" id="Q" gradientUnits="userSpaceOnUse" x1="201.212" x2="220.555" xlink:href="#e" y1="249.292" y2="249.292"/><linearGradient xmlns:xlink="http://www.w3.org/1999/xlink" id="R" gradientUnits="userSpaceOnUse" x1="191.269" x2="196.979" xlink:href="#e" y1="249.292" y2="249.292"/><linearGradient xmlns:xlink="http://www.w3.org/1999/xlink" id="S" gradientUnits="userSpaceOnUse" x1="18.679" x2="26.932" xlink:href="#e" y1="251.119" y2="251.119"/><linearGradient xmlns:xlink="http://www.w3.org/1999/xlink" id="T" gradientUnits="userSpaceOnUse" x1="32.363" x2="40.616" xlink:href="#e" y1="251.119" y2="251.119"/><linearGradient xmlns:xlink="http://www.w3.org/1999/xlink" id="U" gradientUnits="userSpaceOnUse" x1="46.047" x2="54.3" xlink:href="#e" y1="251.119" y2="251.119"/><linearGradient xmlns:xlink="http://www.w3.org/1999/xlink" id="V" gradientUnits="userSpaceOnUse" x1="212.582" x2="220.555" xlink:href="#e" y1="224.971" y2="224.971"/><linearGradient xmlns:xlink="http://www.w3.org/1999/xlink" id="W" gradientUnits="userSpaceOnUse" x1="178.696" x2="211.483" xlink:href="#e" y1="4.419" y2="4.419"/><path d="M6.787 5.113h220.054v255.473H6.787z" fill="#d5e4fe"/><path d="M171.578 260.586h-3V78.172L135.136 50.17l1.926-2.301 34.516 28.903z" fill="url(#f)"/><path d="M177.762 260.586h-3V75.232l-39.637-33.841 1.948-2.282 40.689 34.74z" fill="url(#g)"/><path d="M184.242 260.586h-3V72.342l-46.134-40.604 1.982-2.252 47.152 41.5z" fill="url(#h)"/><path d="m91.921 260.595-.65-109.999 16.144-21.801 2.41 1.785-15.549 20.998.645 108.999z" fill="url(#i)"/><path d="M88.812 260.586h-3v-111.53l21.614-28.44 2.388 1.815-21.002 27.635z" fill="url(#j)"/><path d="M82.542 260.586h-3v-112.34l28.294-35.953 2.357 1.856-27.651 35.136z" fill="url(#k)"/><path d="M77.084 260.586h-3V146.235l.323-.408 33.431-42.299 2.353 1.86-33.107 41.89z" fill="url(#l)"/><path d="M102.95 96.83h58.642v60.514H102.95z" fill="url(#m)"/><path d="M113.413 102.421h-4.398v-10.48h4.398zm8.295-10.479h-4.398v10.48h4.398zm8.295 0h-4.398v10.48h4.398zm8.295 0H133.9v10.48h4.398zm8.295 0h-4.398v10.48h4.398zm8.295 0h-4.398v10.48h4.398z" fill="url(#n)"/><path d="M113.413 162.583h-4.398v-10.48h4.398zm8.295-10.479h-4.398v10.48h4.398zm8.295 0h-4.398v10.48h4.398zm8.295 0H133.9v10.48h4.398zm8.295 0h-4.398v10.48h4.398zm8.295 0h-4.398v10.48h4.398z" fill="url(#o)"/><path d="M192.678 32.243h8.423v107.245h-8.423z" fill="url(#p)"/><path d="M191.659 133.272h10.46v11.577h-10.46z" fill="url(#q)"/><path d="M191.659 25.468h10.46v11.577h-10.46z" fill="url(#r)"/><path d="M209.283 32.243h8.423v107.245h-8.423z" fill="url(#s)"/><path d="M208.265 133.272h10.46v11.577h-10.46z" fill="url(#t)"/><path d="M208.265 25.468h10.46v11.577h-10.46z" fill="url(#u)"/><path d="M0 127.087h19.547v32.199H0z" fill="url(#v)"/><path d="M0 91.942h19.547v30.999H0z" fill="url(#w)"/><path d="M0 66.096h19.547v21.7H0z" fill="url(#x)"/><path d="M0 40.25h19.547v21.7H0z" fill="url(#y)"/><path d="M19.547 159.285H0l19.547-32.198z" fill="url(#z)"/><path d="M19.547 122.941H0l19.547-30.999z" fill="url(#A)"/><path d="M19.547 87.796H0l19.547-21.7z" fill="url(#B)"/><path d="M19.547 61.95H0l19.547-21.7z" fill="url(#C)"/><path d="M57.707 54.838h10.751v105.206H57.707z" fill="url(#D)"/><path d="M42.706 61.95h6.19v41.282h-6.19z" fill="url(#E)"/><path d="M28.371 61.95h5.864v41.282h-5.864z" fill="url(#F)"/><path d="M27.014 127.087h23.24v26.946h-23.24z" fill="#efefef"/><path d="M198.723 162.583h16.29v5.784h-16.29z" fill="url(#G)"/><path d="M198.723 173.499h16.29v5.784h-16.29z" fill="url(#H)"/><path d="M198.723 184.415h16.29v5.784h-16.29z" fill="url(#I)"/><path d="M198.723 195.331h16.29v5.784h-16.29z" fill="url(#J)"/><path d="M24.76 191.544h112.564v10.553H24.76z" fill="url(#K)"/><path d="M27.21 195.849h107.664v1.943H27.21z" fill="#d6d7d8"/><path d="M24.76 206.372h112.564v10.553H24.76z" fill="url(#L)"/><path d="M27.21 210.677h107.664v1.943H27.21z" fill="#d6d7d8"/><path d="M24.76 176.734h112.564v10.553H24.76z" fill="url(#M)"/><path d="M27.21 181.039h107.664v1.943H27.21z" fill="#d6d7d8"/><path d="M73.222 235.83h22.469v11.162H73.222z" fill="url(#N)"/><path d="M152.689 204.578h8.903v20.393h-8.903z" fill="url(#O)"/><path d="M151.315 233.348h11.651v19.643h-11.651z" fill="url(#P)"/><path d="M218.742 251.105h-15.718a1.813 1.813 0 0 1 0-3.626h15.718a1.813 1.813 0 0 1 0 3.626z" fill="url(#Q)"/><ellipse cx="194.124" cy="249.292" fill="url(#R)" rx="2.855" ry="2.261"/><circle cx="22.805" cy="251.119" fill="url(#S)" r="4.127"/><circle cx="36.49" cy="251.119" fill="url(#T)" r="4.127"/><circle cx="50.174" cy="251.119" fill="url(#U)" r="4.127"/><path d="M212.582 215.868h7.973v18.206h-7.973z" fill="url(#V)"/><circle cx="198.066" cy="224.971" fill="#efefef" r="9.103"/><path d="M87.312 13.726h65.377v63.22H87.312z" fill="#efefef"/><path d="M92.773 19.007h54.454v52.658H92.773z" fill="#d6d7d8"/><path d="M25.699 20.382h11.208v10.172H25.699z" fill="#efefef"/><path d="M28.087 22.549h6.432v5.837h-6.432z" fill="#d6d7d8"/><path d="M43.197 20.382h11.208v10.172H43.197z" fill="#efefef"/><path d="M45.585 22.549h6.432v5.837h-6.432z" fill="#d6d7d8"/><path d="M60.694 20.382h11.208v10.172H60.694z" fill="#efefef"/><path d="M63.082 22.549h6.432v5.837h-6.432z" fill="#d6d7d8"/><path d="M25.794 35.164h11.208v10.172H25.794z" fill="#efefef"/><path d="M28.182 37.331h6.432v5.837h-6.432z" fill="#d6d7d8"/><path d="M43.292 35.164H54.5v10.172H43.292z" fill="#efefef"/><path d="M45.68 37.331h6.432v5.837H45.68z" fill="#d6d7d8"/><path d="M60.789 35.164h11.208v10.172H60.789z" fill="#efefef"/><path d="M63.177 37.331h6.432v5.837h-6.432z" fill="#d6d7d8"/><path d="M94.106 0h36.862v8.839H94.106z" fill="#efefef"/><path d="M178.696 1.997h32.787v4.845h-32.787z" fill="url(#W)"/><path d="M136.496 0h36.862v8.839h-36.862z" fill="#efefef"/></svg></g></svg>