<svg xmlns="http://www.w3.org/2000/svg" viewBox="0 0 3000 3000" width="3000" height="3000"><g transform="translate(252.0 733.1999999999999) rotate(0.0 1207.2 857.4000000000001) scale(1.2019241539263403 1.2023221898137761)"><svg width="2008.779" height="1426.24" viewBox="0 0 2008.779 1426.24"><path d="M1970.022.024c-573.49.132-1357.829-.095-1931.266 0C17.356.024 0 17.38 0 38.78v1348.681c0 21.412 17.356 38.756 38.756 38.756 572.812-.227 1357.959.109 1931.265 0 21.401 0 38.758-17.344 38.758-38.756V38.78c0-21.4-17.356-38.756-38.757-38.756z" fill="#f0efd8"/><g fill="#ccccb8"><path d="m509.814 881.473-95.97-77.753-101.698 37.053-16.556 54.397 40.206 87.508-.41 142.393 77.544 156.761 53.372-16.671 19.7-154.666 83.937-101.803 36.096-62.746-6.062-38.118-90.158-26.356zm193.492-730.69-76.784-39.498L296.82 145.95l-174.688-11.425-46.526 38.436 3.954 129.486 92.238 146.634-8.832 220.005 141.749 95.402 52.559-14.094-27.017-90.82 158.461-101.699 32.884-110.163 55.819-12.97 50.602-82.245 63.259-40.227 7.302-39.757zm926.713 579.742 78.048-89.873 18.921-146.635 28.38-122.985-37.385-97.941 127.707-73.887 20.837-43.394-146.635-12.209-189.206 38.225-184.476 35.476-156.095 99.333-129.78-15.141-76.925 74.47-17.799 56.656-68.633 61.71-4.864 82.464 149-49.667 141.905 132.444 42.46 70.589 96.708-26.929-1.992-31.835 75.682 23.651 52.222 74.014 37.553-6.999 19.019-64.649 85.144 33.111h40.205z"/><path d="M990.477 588.919 853.894 692.983l35.104 112.726 103.844 78.845 96.968 222.318 59.364-41.114 30.509-169.378 22.482-68.812-8.649-65.087-32.755-24.561c2.365-18.921 0-78.048 0-78.048L990.476 588.92zm730.6 422.167-115.889 11.826-35.588 46.564-39.073-2.902-38.971 22.79 24.857 44.442 73.065 17.325 68.922 39.922 128.897 11.606 37.948-155.477-104.169-36.095zm33.349-441.972 67.605-31.995 8.077-73.645-17.593-16.927-13.942 29.54-37.841 39.419zm-194.431 338.434-4.572-72.958 77.953 58.282-5.425 37.898zm73.38-41.793 44.665 16.926 29.149-12.224-14.105-55.008zm191.203-24.564-43.983-.92-.899 30.624 43.582 15.515 43.867 45.412 61.291 6.59 3.366-72.4-89.024-12.193-18.201-12.629z"/></g></svg></g><g transform="translate(435.59999999999997 1977.6) rotate(0.0 165.00000000000003 94.20000000000005) scale(1.206396092738958 1.206408565244676)"><svg width="273.542" height="156.166" viewBox="0 0 273.542 156.166"><path d="M1.5 156.166a1.5 1.5 0 0 1-1.5-1.5V30.961a1.5 1.5 0 0 1 1.5-1.5h240.357a1.5 1.5 0 1 1 0 3H3v122.205a1.5 1.5 0 0 1-1.5 1.5z" fill="#001332"/><circle cx="241.857" cy="31.685" fill="#fff" r="30.185"/><path d="M241.857 63.37c-17.471 0-31.685-14.214-31.685-31.685S224.386 0 241.857 0s31.685 14.214 31.685 31.685-14.214 31.685-31.685 31.685zm0-60.37c-15.817 0-28.685 12.868-28.685 28.685S226.04 60.37 241.857 60.37s28.685-12.868 28.685-28.685S257.674 3 241.857 3z" fill="#001332"/></svg></g><g transform="translate(2067.6 1126.8) rotate(0.0 229.20000000000005 184.79999999999995) scale(1.2020390610249851 1.2010255510387113)"><svg width="381.352" height="307.737" viewBox="0 0 381.352 307.737"><path d="M379.852 277.552H53.322a1.5 1.5 0 1 1 0-3h325.03V1.5a1.5 1.5 0 1 1 3 0v274.552a1.5 1.5 0 0 1-1.5 1.5z" fill="#001332"/><circle cx="31.685" cy="276.052" fill="#fff" r="30.185"/><path d="M31.685 307.737C14.214 307.737 0 293.523 0 276.052s14.214-31.685 31.685-31.685 31.685 14.214 31.685 31.685-14.214 31.685-31.685 31.685zm0-60.37C15.868 247.367 3 260.235 3 276.052s12.868 28.685 28.685 28.685 28.685-12.868 28.685-28.685-12.868-28.685-28.685-28.685z" fill="#001332"/></svg></g><g transform="translate(882.0 606.0) rotate(0.0 114.0 252.0) scale(1.206693976056651 1.2101595777887695)"><svg width="188.946" height="416.474" viewBox="0 0 188.946 416.474"><path d="M157.261 386.289H1.5a1.5 1.5 0 0 1-1.5-1.5V1.5a1.5 1.5 0 0 1 3 0v381.789h154.261a1.5 1.5 0 1 1 0 3z" fill="#001332"/><circle cx="157.261" cy="384.789" fill="#fff" r="30.185"/><path d="M157.261 416.474c-17.471 0-31.685-14.214-31.685-31.685s14.214-31.685 31.685-31.685 31.685 14.214 31.685 31.685-14.214 31.685-31.685 31.685zm0-60.37c-15.817 0-28.685 12.868-28.685 28.685s12.868 28.685 28.685 28.685 28.685-12.868 28.685-28.685-12.868-28.685-28.685-28.685z" fill="#001332"/></svg></g><g transform="translate(1070.3999999999999 787.1999999999999) rotate(0.0 196.20000000000005 142.2) scale(1.1977144531536152 1.1959780821456956)"><svg width="327.624" height="237.797" viewBox="0 0 327.624 237.797"><path d="m1.5 236.297 65.638-72.582V44.198c0-23.582 19.117-42.698 42.698-42.698h173.589c23.582 0 42.698 19.117 42.698 42.698v134.466c0 23.582-19.117 42.698-42.698 42.698H109.836c-.389 0-.773-.019-1.16-.029l.021.029z" fill="#fff"/><path d="M1.5 237.797a1.498 1.498 0 0 1-1.112-2.506l65.25-72.154V44.198C65.638 19.827 85.465 0 109.836 0h173.589c24.371 0 44.199 19.827 44.199 44.198v134.466c0 24.371-19.828 44.198-44.199 44.198H109.836c-.283 0-.564-.009-.845-.019l-.049-.002-.038.006L1.707 237.783c-.069.01-.139.014-.208.014zM109.836 3C87.119 3 68.638 21.481 68.638 44.198v119.517c0 .372-.138.73-.387 1.006l-62.87 69.521 102.809-14.323a1.48 1.48 0 0 1 .526-.085l.377.012c.248.009.495.017.744.017h173.589c22.717 0 41.199-18.482 41.199-41.198V44.198C324.625 21.481 306.143 3 283.426 3z" fill="#001332"/></svg></g><g transform="translate(736.8 1365.6) rotate(0.0 108.0 271.79999999999995) scale(1.2112783472779882 1.2060729634206677)"><svg width="178.324" height="450.719" viewBox="0 0 178.324 450.719"><g fill="#003157"><path d="M27.97 427.055 38.131 16.513l19.993.495L47.963 427.55z"/><path d="M78.894 62.286 47.571 28.26 13.546 59.583 0 44.869 48.74 0l44.869 48.74zm42.614 371.481 7.533-410.6 19.996.368-7.532 410.599z"/><path d="m131.398 450.719-46.763-46.926 14.167-14.118 32.645 32.76 32.76-32.645 14.117 14.166z"/></g></svg></g><g transform="translate(1508.3999999999999 1812.0) rotate(61.12614814491511 108.0 271.79999999999995) scale(1.2112783472779882 1.2060729634206677)"><svg width="178.324" height="450.719" viewBox="0 0 178.324 450.719"><g fill="#003157"><path d="M27.97 427.055 38.131 16.513l19.993.495L47.963 427.55z"/><path d="M78.894 62.286 47.571 28.26 13.546 59.583 0 44.869 48.74 0l44.869 48.74zm42.614 371.481 7.533-410.6 19.996.368-7.532 410.599z"/><path d="m131.398 450.719-46.763-46.926 14.167-14.118 32.645 32.76 32.76-32.645 14.117 14.166z"/></g></svg></g><g transform="translate(1597.2 950.4) rotate(118.52027676239919 108.0 271.8) scale(1.2112783472779882 1.206072963420668)"><svg width="178.324" height="450.719" viewBox="0 0 178.324 450.719"><g fill="#003157"><path d="M27.97 427.055 38.131 16.513l19.993.495L47.963 427.55z"/><path d="M78.894 62.286 47.571 28.26 13.546 59.583 0 44.869 48.74 0l44.869 48.74zm42.614 371.481 7.533-410.6 19.996.368-7.532 410.599z"/><path d="m131.398 450.719-46.763-46.926 14.167-14.118 32.645 32.76 32.76-32.645 14.117 14.166z"/></g></svg></g><g transform="translate(649.1999999999999 397.2) rotate(0.0 225.00000000000006 224.99999999999997) scale(1.202919083642974 1.2029190836429735)"><svg width="374.09" height="374.09" viewBox="0 0 374.09 374.09"><circle cx="187.045" cy="187.045" fill="#fff" r="185.545"/><path d="M261.908 97.586c-5.41-9.36-12.94-8.43-18.05-12.53-4.72-3.78-7.03-13.71-7.63-16.72l-.06-.31c-.04-.18-.07-.32-.08-.42l-.03-.15s-1.77-.5-4.76-1.36c-13.33-3.79-50.88-14.49-63.35-18.05a4.886 4.886 0 0 1-3.39-5.9l.06-.22v-.01l1.43-5.63s-20.56-3.22-36.79 12.48c-11.66 11.28-11.19 21.65-9.24 29.47.52 2.06-.39 4.19-2.19 5.33-5.11 3.23-10.59 9.27-11.67 14.32-1.63 7.66.52 15.16 5.53 20.32 1.36 1.4.88 3.74-.9 4.55-7.96 3.59-11.49 11.38-11.49 16.41 0 17.83 14.4 21.59 21.68 22.9 2.81.5 4.58 3.29 3.86 6.05-.12.44-2.24 10.87 7.15 17.35 8.1 5.58 19.02 3.43 24.92 1.6 2.59-.8 4.21-1.54 4.21-1.54l66.47.82s.55.11 1.48.21c3.62.4 12.98.63 17.76-6.61 5.79-8.81 2.1-16.46-.7-20.52-1.01-1.45-1.9-2.44-2.21-2.86a8.616 8.616 0 0 1-1.35-2.75c-.54-1.88.17-3.9 1.71-5.09 4.64-3.59 8.53-4.08 9.36-10.27.53-3.96-2.21-5.39-2.37-6.25-.03-.14.08-.33.31-.57 2.69-2.98 21.93-13.98 10.33-34.05z" fill="#001c33"/><circle cx="236.923" cy="143.196" fill="#a14736" r="18.662"/><path d="M196.853 208.079c21.073-2.063 37.119-19.816 37.049-40.989l-.288-87.507c-.08-24.198-20.967-43.077-45.05-40.719L172.16 40.47c-24.083 2.358-40.911 24.93-36.296 48.684l16.691 85.901c4.039 20.785 23.223 35.088 44.296 33.024z" fill="#a14736"/><path d="M235.175 164.4a1.5 1.5 0 0 1-1.497-1.426l-1.837-37.286a1.5 1.5 0 1 1 2.996-.147l1.837 37.286a1.5 1.5 0 0 1-1.424 1.572l-.075.002z" fill="#001332"/><path d="M126.673 158.384c2.938 9.878 13.331 15.506 23.209 12.568.533-.158 1.058-.34 1.566-.541l-6.271-36.004a18.59 18.59 0 0 0-5.936.768c-9.878 2.938-15.506 13.331-12.568 23.209z" fill="#a14736"/><path d="M150.691 172.605a1.5 1.5 0 0 1-1.481-1.277l-5.517-36.699a1.5 1.5 0 0 1 2.967-.446l5.517 36.699a1.5 1.5 0 0 1-1.485 1.723z" fill="#001332"/><path d="M249.652 119.342s-7.464-3.906-8.858-6.226c-4.692-7.815-3.799-36.1-3.799-36.1-.084-25.646-18.735-45.94-50.823-45.934-13.252.003-20.129 5.208-20.129 5.208s-40.149 14.912-33.334 50.785l9.229 47.488s4.859 6.085 13.91-.158c10.298-7.103-5.083-20.664 3.432-34.946 6.866-11.516 18.645-5.375 18.645-5.375s-.703 6.917 8.001 16.743c6.086 6.87 21.102 5.889 21.102 5.889s3.11 10.02 16.194 12.268c15.704 2.699 26.429-9.643 26.429-9.643z" fill="#001c33"/><path d="m206.384 171.748.943-.092a8.645 8.645 0 0 0 7.745-9.598l-3.084-26.64a8.645 8.645 0 0 0-17.205 1.685l2.141 26.732a8.644 8.644 0 0 0 9.459 7.913z" fill="#913d29"/><path d="M190.775 185.815c-.465 0-11.441-.108-16.576-9.531a1.5 1.5 0 0 1 2.634-1.436c4.27 7.835 13.849 7.966 13.946 7.967a1.5 1.5 0 0 1-.004 3z" fill="#001332"/><path d="M296.978 336.526c-1.84 1.36-3.71 2.69-5.61 3.97a185.504 185.504 0 0 1-25.4 14.52l-5.34-14.21-4.2-11.2-.02-.04-16.72-44.57c-11.25-28.88 14.3-50.53 23.09-56.92h.01c.02-.02.04-.03.05-.04 1.72-1.25 2.78-1.9 2.78-1.9.29.02.56.05.81.08.42.05.78.09 1.1.13.98.12 1.47.2 1.47.2 23.07 3.16 34.78 14.3 43.59 34.38l19.41 41.95a186.44 186.44 0 0 1-24.1 24.96c-3.43 2.95-6.97 5.77-10.61 8.46z" fill="#8eb52d"/><path d="M291.368 340.496a185.504 185.504 0 0 1-25.4 14.52c-9.37 4.41-19.16 8.05-29.3 10.86-15.79 4.37-32.43 6.71-49.62 6.71-24.32 0-47.55-4.68-68.83-13.19h-.01c-1.05-.42-2.09-.84-3.13-1.28l2.94-114.41s8.69-2.02 22.4-4.63c.5-.1 1.01-.189 1.52-.3 10.34-1.94 23.31-4.19 37.48-6.17 2.47-.34 4.98-.68 7.51-1 7.59-.98 15.44-1.86 23.34-2.55 1.54-.14 3.09-.27 4.64-.4 9.72-.76 19.45-1.24 28.81-1.27 2.23-.01 4.43.03 6.6.08 2.42.04 4.6.11 6.55.2.56.03 1.1.05 1.62.08.3.02.58.03.86.05 1.06.08 2.25.18 3.43.28h.01c2.23.21 4.41.44 5.5.55.07 0 .14.01.2.02.05 0 .1.01.15.02.06 0 .12.01.16.02.05 0 .09 0 .12.01.05.01.08.01.08.01l19.31 96.5v.01l2.11 10.55z" fill="#001332"/><path d="M296.978 336.526c-1.84 1.36-3.71 2.69-5.61 3.97a185.504 185.504 0 0 1-25.4 14.52c-9.37 4.41-19.16 8.05-29.3 10.86l-5.24-32.9-7.2-45.26-9.27-58.22s17.17-1.48 28.78-1.92c2.54-.09 4.81-.14 6.58-.11 2.42.04 4.6.11 6.55.2.56.03 1.1.05 1.62.08.3.02.58.03.86.05 1.3.08 2.46.16 3.49.24 2.72.21 4.53.44 5.45.59.07 0 .14.01.2.02.05 0 .1.01.15.02.06 0 .12.01.16.02.05 0 .09 0 .12.01.05.01.08.01.08.01l16.06 61.06.47 1.85 9.81 37.26.01.04 1.51 5.76.43 1.62z" fill="#fff"/><path d="M307.898 327.836c-3.43 2.95-6.97 5.77-10.61 8.46-.1.08-.2.16-.31.23-1.84 1.36-3.71 2.69-5.61 3.97a185.504 185.504 0 0 1-25.4 14.52c-9.37 4.41-19.16 8.05-29.3 10.86-15.79 4.37-32.43 6.71-49.62 6.71-24.32 0-47.55-4.68-68.83-13.19h-.01c-1.05-.42-2.09-.84-3.13-1.28-5.03-2.12-9.96-4.46-14.76-7l4.8-103.97s9.65-6.47 34.2-10.4c.91-.15 1.85-.29 2.82-.44 15.21-2.27 36.96-4.43 36.96-4.43l.32.73 31.99 73.01.01.08.8 1.84 2.69-78.88.05-1.32s16.95-1.46 28.55-1.91c2.63-.1 4.99-.15 6.81-.12 7.16.13 12.26.51 15.3.83.29.02.56.05.81.08.42.05.78.09 1.1.13.98.12 1.47.2 1.47.2l36.93 89.4z" fill="#8eb52d"/><path d="M296.977 338.026a1.5 1.5 0 0 1-1.452-1.129l-11.921-46.762a1.5 1.5 0 1 1 2.908-.738l11.919 46.758a1.5 1.5 0 0 1-1.455 1.872z" fill="#001332"/><path d="m154.528 268.846-22.88 57.05-8.77 21.89-4.66 11.61h-.01c-1.05-.42-2.09-.84-3.13-1.28-5.03-2.12-9.96-4.46-14.76-7a186.151 186.151 0 0 1-45.64-34.06l15.64-36.38c8.55-21.32 27.17-37.85 69-43.93l1.1 2.33 1.29 2.72 1.95 4.1v.01z" fill="#8eb52d"/><path d="M118.218 360.896a1.504 1.504 0 0 1-1.344-2.179l13.381-33.379a1.499 1.499 0 1 1 2.785 1.116l-13.431 33.501a1.5 1.5 0 0 1-1.392.941z" fill="#001332"/><path d="m212.215 307.539-70.673-63.543L144 212.225h36.476z" fill="#8eb52d"/><path d="m211.569 315.943 33.612-74.947-3.581-33.459-31.598 3.77z" fill="#8eb52d"/><path d="M122.871 349.284a1.5 1.5 0 0 1-.2-2.986l170.29-23.233a1.5 1.5 0 0 1 .405 2.972l-170.29 23.233a1.581 1.581 0 0 1-.205.014z" fill="#001332"/><path d="m296.518 334.726-52.822 8.946-2.383-11.99 52.587-7.233z" fill="#f0efd8"/><g fill="#001332"><path d="M243.694 345.172a1.501 1.501 0 0 1-1.47-1.208l-2.383-11.99a1.498 1.498 0 0 1 1.267-1.779l52.586-7.232a1.5 1.5 0 0 1 1.658 1.116l2.619 10.277a1.5 1.5 0 0 1-1.203 1.849l-52.822 8.946a1.54 1.54 0 0 1-.252.021zm-.6-12.221 1.788 8.999 49.78-8.43-1.886-7.401-49.682 6.833z"/><path d="M187.045 374.09C83.908 374.09 0 290.182 0 187.045S83.908 0 187.045 0 374.09 83.908 374.09 187.045 290.182 374.09 187.045 374.09zm0-371.09C85.562 3 3 85.562 3 187.045S85.562 371.09 187.045 371.09 371.09 288.528 371.09 187.045 288.528 3 187.045 3z"/></g></svg></g><g transform="translate(200.4 2048.4) rotate(0.0 237.60000000000002 237.5999999999999) scale(1.2021219273414439 1.2021219273414432)"><svg width="395.301" height="395.301" viewBox="0 0 395.301 395.301"><circle cx="197.651" cy="197.651" fill="#fff" r="196.151"/><circle cx="167.638" cy="106.498" fill="#f0efd8" r="70.305"/><ellipse cx="221.395" cy="150.568" fill="#fcb292" rx="59.618" ry="61.111" transform="matrix(.95462056 -.29782476 .29782476 .95462056 -34.796 72.77)"/><path d="M241.745 172.548s-10.853-7.586-16.729-5.747c-2.542.796-4.789 3.226-4.902 5.5-.516 10.465 20.427 18.206 20.427 18.206s17.814-11.986 17.107-19.706c-.208-2.275-2.955-4.289-5.392-4.557-4.326-.476-10.511 6.304-10.511 6.304z" fill="#f041fe"/><path d="M239.867 182.575c-.258 0-.517-.067-.75-.201l-12.738-7.359a1.5 1.5 0 1 1 1.501-2.597l11.889 6.868 10.126-7.456a1.5 1.5 0 1 1 1.778 2.415l-10.916 8.038a1.497 1.497 0 0 1-.889.292z" fill="#001332"/><path d="M195.331 75.178c-37.724 11.769-58.526 52.658-46.462 91.327 8.969 28.749 34.668 55.123 62.765 61.93-13.059-11.801-19.757-34.104-25.279-52.519-4.069-13.568-5.245-35.303-5.08-46.695.153-10.613 8.574-19.255 19.178-19.729l44.389-1.983c9.793-.437 18.493 6.256 20.525 15.846 2.034 9.598 4.363 28.667 4.191 39.134-.536 32.744-2.975 45.696-7.192 52.678 22.952-21.217 32.613-60.834 23.113-91.282-12.064-38.669-52.426-60.476-90.15-48.707z" fill="#f0efd8"/><path d="M152.258 177.021a1.5 1.5 0 0 1-1.374-.896 88.004 88.004 0 0 1-3.447-9.174c-12.291-39.397 8.994-81.209 47.447-93.206 10.604-3.308 21.53-4.109 32.474-2.38a1.5 1.5 0 0 1-.468 2.963c-10.484-1.657-20.951-.889-31.112 2.281-36.875 11.504-57.275 51.63-45.477 89.448a84.569 84.569 0 0 0 3.329 8.859 1.5 1.5 0 0 1-1.372 2.104z" fill="#001332"/><path d="M273.367 378.648c11.833-14.944 8.124-102.81 10.97-121.56-31.643-11.156-64.714-23.641-98.3-12.39v.01c-7.785 2.391-29.867 9.906-37.44 12.38.571 10.189 4.419 85.79 5.08 97.91.161 17.265 7.063 31.036 21.61 37.54a199.282 199.282 0 0 0 22.36 1.26c25.998.073 51.939-5.232 75.72-15.15z" fill="#f47ffe"/><path d="M332.747 339.847a196.313 196.313 0 0 1-33.88 25.85c-8.13 4.91-16.65 9.25-25.5 12.95l-9.49 3.68-12.5-85.81c-1.827-29.877 30.24-40.33 30.24-40.33 3.84-.57 7.64-.48 11.28.16h.02c14.13 2.51 25.9 13.48 28.78 28.37z" fill="#4c00fe"/><path d="M273.367 378.648c8.85-3.7 17.37-8.04 25.5-12.95l-5.155-109.2-16.505-6.45-32.63-13.09-17.34 76.38v78.826c12.65-1.91 24.91-5.616 36.64-9.836z" fill="#4c00fe"/><path d="M237.097 232.48s-2.478 16.237-7.972 60.184c-4.544 36.34-1.885 58.768-1.885 58.768l42.533-71.011-19.834-3.673 28.638-26.101-41.48-18.166z" fill="#003157"/><path d="M202.657 394.268c-26.601.672-53.204-4.554-77.81-14.43l8.77-124.79c12.487-4.898 37.764-14.799 50.29-19.71.632 2.845 16.144 71.052 17.34 76.38.334 18.742 1.073 63.397 1.41 82.55z" fill="#4c00fe"/><path d="m181.257 295.148-2.84 16.55v.01l-12.76 74.53-.82 4.82c-7.6-1.27-15.06-2.99-22.33-5.12-6.01-1.75-11.9-3.79-17.66-6.1a195.128 195.128 0 0 1-33.47-17.3l20.12-82.16c2.84-11.99 11.36-21.3 22.12-25.33 6.14-2.3 47.64 40.1 47.64 40.1z" fill="#4c00fe"/><path d="M191.387 230.86s2.478 16.237 7.972 60.184c4.544 36.34 1.885 58.768 1.885 58.768l-42.533-71.011 19.834-3.673-28.638-26.101 41.48-18.166z" fill="#003157"/><path d="M142.509 387.438a1.5 1.5 0 0 1-1.487-1.716l7.18-49.42a1.5 1.5 0 1 1 2.969.431l-7.18 49.42a1.5 1.5 0 0 1-1.482 1.285zm133.974-9.966a1.5 1.5 0 0 1-1.468-1.2l-8.555-41.945a1.5 1.5 0 1 1 2.94-.6l8.555 41.945a1.5 1.5 0 0 1-1.471 1.801z" fill="#001332"/><path d="M393.797 197.648c0 55.97-23.44 106.47-61.05 142.2a196.313 196.313 0 0 1-33.88 25.85c-8.13 4.91-16.65 9.25-25.5 12.95-3.12 1.31-6.29 2.54-9.49 3.68a193.57 193.57 0 0 1-36.64 9.25 196.767 196.767 0 0 1-29.59 2.22c-7.56 0-15.02-.43-22.35-1.26h-.01c-3.52-.4-7-.89-10.45-1.48-7.6-1.27-15.06-2.99-22.33-5.12-6.01-1.75-11.9-3.79-17.66-6.1a195.128 195.128 0 0 1-33.47-17.3c-54.08-34.92-89.88-95.731-89.88-164.89 0-108.33 87.82-196.15 196.15-196.15s196.15 87.82 196.15 196.15z" fill="none"/><path d="M197.65 395.301C88.666 395.301 0 306.636 0 197.651S88.666 0 197.65 0s197.651 88.666 197.651 197.651-88.666 197.651-197.651 197.651zM197.65 3C90.32 3 3 90.32 3 197.651s87.32 194.651 194.65 194.651 194.651-87.32 194.651-194.651S304.981 3 197.65 3z" fill="#001332"/></svg></g><g transform="translate(2286.0 836.4) rotate(0.0 256.79999999999995 256.8) scale(1.2024723731035771 1.2024723731035776)"><svg width="427.12" height="427.12" viewBox="0 0 427.12 427.12"><circle cx="213.56" cy="213.56" fill="#fff" r="212.06"/><path d="M339.407 384.248a211.275 211.275 0 0 1-36.18 21.53c-4.88 2.29-9.87 4.39-14.96 6.31-1.15.43-2.31.85-3.47 1.26-22.26 7.95-46.25 12.27-71.24 12.27-43.67 0-84.24-13.19-117.97-35.82l-1.78 2.21.18-3.29 2.8-51.19 9.65-94.23v-.01s4.07-1.25 11.02-3.07c16.25-4.26 48.27-11.65 81.01-13.55 33.27-1.93 76.1 5.08 104.49 10.84 18.22 3.71 30.48 6.9 30.48 6.9l3.83 89.73.01.17 1.95 45.74v.01z" fill="#f47ffe"/><path d="M287.381 214.787c-15.536-14.008-38.827-7.306-47.954-4.119l-37.082 12.434-26.705-14.684c-7.541-4.047-26.698-7.64-42.234 6.369-18.134 16.351-15.883 27.381-15.883 27.381l84.823 15.597 100.919-15.597s2.252-11.03-15.883-27.381z" fill="#f47ffe"/><path d="M202.345 259.265c-.101 0-.201-.01-.3-.03l-84.823-17.331a1.5 1.5 0 1 1 .601-2.939l84.525 17.271 100.313-20.189a1.5 1.5 0 1 1 .592 2.941l-100.611 20.249a1.48 1.48 0 0 1-.296.03z" fill="#001332"/><path d="M172.814 335.406a5 5 0 0 1-4.997-5.278l4.993-89.797a5.007 5.007 0 0 1 5.27-4.715 5 5 0 0 1 4.715 5.27l-4.993 89.797a5 5 0 0 1-4.988 4.723zm59.959-.693a5 5 0 0 1-4.993-4.811l-3.378-89.105a5 5 0 0 1 9.993-.379l3.378 89.105a5 5 0 0 1-5 5.19z" fill="#001332"/><path d="M401.257 312.328a212.485 212.485 0 0 1-27.74 40.46c-.12.13-.23.26-.35.39-9.62 11-20.37 20.99-32.06 29.8l-1.88-2.92v-.01l-13.55-21.04-10.44-16.23-2.62-4.07-14.11-21.92-.01-.01-3.06-4.76c-1.39-2.02-2.62-4.1-3.7-6.2v-.01c-3.84-7.4-5.8-15.2-5.8-22.71 0-12.15 5.15-23.55 15.91-31.29 9.27-6.66 31.59-7.4 31.59-7.4s19.23 0 34.73 19.08z" fill="#f47ffe"/><g fill="#fcb292"><path d="m330.727 348.498-5.05 10.51-22.45 46.77c-4.88 2.29-9.87 4.39-14.96 6.31l-7.45-3.13-.03-.01-58.64-24.58.09-.18 8.5-16.75.61-1.21 1.39-2.74 9-17.74.93-1.84.21-.4 9.62-18.98 1.35-2.66.6-1.18 10.2-20.11.05-.1s16.44 8.3 25.63 12.66c2.38 1.12 4.27 1.98 5.27 2.37.97.38 1.94.8 2.9 1.27l.01.01c7.69 3.75 14.8 10.26 20.39 16.42l.69.78c.05.05.1.1.14.15v.01c6.72 7.58 11 14.35 11 14.35z"/><path d="M199.401 361.288c2.69-5.839 9.577-8.426 15.445-5.803l27.155 12.139c5.801 2.593 8.403 9.395 5.815 15.198-2.564 5.748-9.269 8.371-15.053 5.889l-27.333-11.732c-6.066-2.603-8.791-9.696-6.029-15.691z"/><path d="M205.468 339.55c3.447-6.594 11.558-9.186 18.19-5.813l30.688 15.604c6.555 3.333 9.17 11.347 5.842 17.905-3.297 6.496-11.2 9.14-17.742 5.936l-30.917-15.144c-6.861-3.361-9.601-11.717-6.061-18.488z"/><path d="M212.408 315.862c3.447-6.594 11.558-9.186 18.19-5.813l30.688 15.604c6.555 3.333 9.17 11.347 5.842 17.905-3.297 6.496-11.2 9.14-17.742 5.936l-30.917-15.144c-6.861-3.361-9.601-11.717-6.061-18.488z"/><path d="M228.519 297.266c3.447-6.594 11.558-9.186 18.19-5.813l30.688 15.604c6.555 3.333 9.17 11.347 5.842 17.905-3.297 6.496-11.2 9.14-17.742 5.936l-30.917-15.144c-6.861-3.361-9.601-11.717-6.061-18.488zm63.15 9.228c.476-4.029.197-14.297 2.386-19.272 6.229-14.159 18.925-16.069 25.28-8.676 1.84 2.14.043 6.475.043 6.475-2.796 6.782-3.567 14.259-2.234 21.682 0 0 1.874 8.678 2.08 11.588.43 6.073-.919 24.152-.919 24.152l-30.585-20.064s3.318-10.532 3.95-15.885z"/></g><path d="M235.957 369.751c-.202 0-.408-.041-.605-.126l-29.539-12.849a1.52 1.52 0 1 1 1.212-2.787l29.539 12.849a1.52 1.52 0 0 1-.607 2.914zm23.35-45.36c-.208 0-.419-.043-.621-.133l-30.958-13.876a1.52 1.52 0 1 1 1.243-2.773l30.958 13.876a1.52 1.52 0 0 1-.623 2.906zm-12.073 22.976c-.199 0-.4-.039-.595-.122l-32.812-13.972a1.52 1.52 0 0 1 1.19-2.797l32.812 13.972a1.52 1.52 0 0 1-.595 2.919z" fill="#001332"/><path d="M373.517 352.788c-.12.13-.23.26-.35.39-9.62 11-20.37 20.99-32.06 29.8-.56.43-1.13.86-1.7 1.27a211.275 211.275 0 0 1-36.18 21.53c-4.88 2.29-9.87 4.39-14.96 6.31-1.15.43-2.31.85-3.47 1.26l-5.05-2.4 1.04-2 34.45-66.17.91-1.75 2.58-4.96v-.02l.01-.01.99-1.89v-.01l3.71-7.11 13.83 7.11z" fill="#f47ffe"/><path d="M373.165 354.679c-.235 0-.474-.055-.697-.173l-48.43-25.467-4.482 8.101a1.5 1.5 0 0 1-2.618-1.464l5.187-9.374a1.502 1.502 0 0 1 2.011-.602l49.73 26.15a1.5 1.5 0 0 1-.7 2.828zm-88.369 60.17c-.216 0-.435-.047-.643-.146l-5.05-2.4a1.499 1.499 0 0 1-.677-2.065l2.791-5.182a1.499 1.499 0 1 1 2.64 1.424l-2.043 3.79 3.626 1.723a1.5 1.5 0 0 1-.645 2.855z" fill="#001332"/><path d="M163.917 288.429c0 9.64-2.82 19.34-8.82 27.45l-59.51 73.92-1.78 2.21.18-3.29a213.229 213.229 0 0 1-63.52-68.1l49.36-60c9.39-10.43 18.47-15.33 26.61-17.32 2.65-.66 5.21-1 7.64-1.12 1.04-.05 2.2-.06 3.45-.01h.02c4.83.19 11.03 1.17 16.91 3.11q.01.01.02.01c4.43 1.45 8.68 3.45 12.05 6.07 11.21 8.69 17.39 22.82 17.39 37.07z" fill="#f47ffe"/><path d="M202.936 68.752c-.959-5.54 3.707-21.998 3.707-21.998s-12.51-8.549-26.83-2.358c-15.864 6.859-11.146 22.254-16.015 22.993-6.685 1.014-12.481-1.487-12.481-1.487s-3.515 13.074 10.103 21.656c13.558 8.544 43.299-8.503 41.516-18.806z" fill="#001c33"/><path d="m174.411 118.028-6.28-.838c-13.699-1.828-21.981-13.057-20.154-26.756l.419-3.14s5.329-.055 8.114-1.056c13.623-4.896 21.316 1.069 21.316 1.069l-3.415 30.72z" fill="#001c33"/><circle cx="161.449" cy="128.475" fill="#fcb292" r="18.384"/><path d="m250.748 178.656 1.384-86.094c1.612-20.748-13.647-40.339-34.681-43.145l-.026-.004C196.391 46.607 177 60.609 172.414 81.687l-21.002 83.716c-3.273 12.863 5.407 25.702 18.563 27.457l55.662 7.426c13.156 1.755 24.899-8.359 25.112-21.63z" fill="#fcb292"/><path d="M254.733 101.365s-8.768 2.555-19.571.97c-26.963-3.955-37.838-34.684-37.838-34.684s-15.425 26.763-33.225 24.052l5.145-11.915c6.564-19.675 24.434-35.672 45.468-32.866l5.307.708c21.034 2.806 35.179 22.35 35.219 43.594z" fill="#001c33"/><path d="M255.19 128.805c13.699 1.828 26.286-7.796 28.114-21.495l1.197-8.973-39.232-4.909s-1.747 14.252.3 19.152c2.62 6.271 6.132 6.74 6.132 6.74l3.489 9.486z" fill="#001c33"/><path d="M273.387 139.809c-1.342 10.063-10.592 17.135-20.654 15.792a18.341 18.341 0 0 1-1.607-.286l.575-35.998a18.303 18.303 0 0 1 5.894-.164c10.063 1.342 17.135 10.592 15.792 20.655z" fill="#fcb292"/><path d="M251.123 156.887c-.024 0-.049 0-.074-.002a1.5 1.5 0 0 1-1.425-1.571l.003-.071.588-36.897c.014-.828.706-1.504 1.524-1.476a1.5 1.5 0 0 1 1.476 1.524l-.59 36.946-.005.119a1.5 1.5 0 0 1-1.497 1.427z" fill="#001332"/><path d="m183.718 157.505-.925-.123a8.516 8.516 0 0 1-7.294-9.716l3.956-26.12a8.516 8.516 0 0 1 16.88 2.252l-3.03 26.244a8.515 8.515 0 0 1-9.586 7.464z" fill="#f29c80"/><path d="M202.802 177.33c-.324 0-.619-.017-.881-.052a1.501 1.501 0 0 1 .396-2.974c3.249.437 17.881-3.931 19.589-13.21a1.5 1.5 0 0 1 2.951.544c-1.896 10.295-16.368 15.693-22.055 15.693zm-46.535-29.499a1.5 1.5 0 0 1-1.465-1.83l8.215-36.461a1.5 1.5 0 0 1 2.927.659l-8.215 36.461a1.501 1.501 0 0 1-1.462 1.171z" fill="#001332"/><path d="M231.23 72.526c2.377-5.094-24.587-25.773-24.587-25.773s13.91-9.011 35.423 1.043c22.036 10.299 10.768 20.983 27.291 33.675 5.362 4.119 12.434 1.837 12.434 1.837s-.035 13.539-15.427 18.25-39.555-19.557-35.134-29.032z" fill="#001c33"/><path d="M425.617 213.558c0 35.66-8.81 69.27-24.36 98.77a212.485 212.485 0 0 1-27.74 40.46c-.12.13-.23.26-.35.39-9.62 11-20.37 20.99-32.06 29.8-.56.43-1.13.86-1.7 1.27a211.275 211.275 0 0 1-36.18 21.53c-4.88 2.29-9.87 4.39-14.96 6.31-1.15.43-2.31.85-3.47 1.26-22.26 7.95-46.25 12.27-71.24 12.27-43.67 0-84.24-13.19-117.97-35.82-.54-.36-1.07-.72-1.6-1.08a213.229 213.229 0 0 1-63.52-68.1c-18.41-31.419-28.97-68.01-28.97-107.06 0-117.12 94.95-212.06 212.06-212.06s212.06 94.94 212.06 212.06z" fill="none"/><path d="M213.56 427.12c-57.044 0-110.674-22.214-151.01-62.55S0 270.604 0 213.56 22.214 102.886 62.55 62.55 156.516 0 213.56 0c117.757 0 213.56 95.803 213.56 213.56s-95.803 213.56-213.56 213.56zm0-424.12C97.457 3 3 97.457 3 213.56s94.457 210.56 210.56 210.56 210.56-94.457 210.56-210.56S329.663 3 213.56 3z" fill="#001332"/></svg></g><g transform="translate(1191.6 868.8) rotate(0.0 112.80000000000007 69.60000000000002) scale(1.197649294735334 1.18998768978252)"><svg width="188.369" height="116.976" viewBox="0 0 188.369 116.976"><path d="M55.716 0h132.653v116.726H55.716z" fill="#f47ffe"/><path d="M111.701 0H133.3v48.617h-21.599z" fill="#f0efd8"/><path d="M1.5 30.199h97.136v85.277H1.5z" fill="#fff"/><path d="M98.636 116.975H1.5a1.5 1.5 0 0 1-1.5-1.5V30.199a1.5 1.5 0 0 1 1.5-1.5h97.136a1.5 1.5 0 0 1 1.5 1.5v85.277a1.5 1.5 0 0 1-1.5 1.5zm-95.636-3h94.136V31.699H3v82.277z" fill="#001332"/><path d="M19.003 41.455v22.593h5.648v5.648h5.648v-5.648h11.296V41.455H19.002zm22.593 22.593v5.648h5.648v5.648H35.948v5.648H19.003v22.593h22.593V80.992h16.945v-5.648h-5.648v-5.648h11.296v-5.648h5.648v5.648h5.648v-5.648h5.648V41.455H58.54v22.593H41.595zm33.889 5.648v5.648h5.648v-5.648zm0 5.648h-5.648v5.648h5.648zm0 5.648v5.648h5.648v-5.648zm0 5.648h-5.648v-5.648h-5.648v5.648H50.068v16.945h5.648V92.289h11.296v5.648h5.648v-5.648h2.824v-5.648zm-8.472 11.296h-5.648v5.648h5.648zm2.824-22.593v-5.648h-5.648v5.648zm-33.889 0v-5.648H30.3v5.648zm-11.296-5.648h-5.648v5.648h5.648zm22.593-28.241V52.75h-2.824v5.648h2.824v2.824h5.648V52.75h2.824v-5.648h-2.824v-5.648zm-22.593 5.648h11.296v11.296H24.652zm39.538 0h11.296v11.296H64.19zm-36.713 2.824v5.648h5.648v-5.648zm39.538 0v5.648h5.648v-5.648zM24.653 86.639h11.296v11.296H24.653zm2.824 2.824v5.648h5.648v-5.648zm48.01 8.472v5.648h5.648v-5.648z" fill="#f47ffe"/></svg></g><g transform="translate(2092.7999999999997 1458.0) rotate(0.0 265.8000000000002 216.0) scale(1.2006938546880372 1.2019331090837764)"><svg width="442.744" height="359.421" viewBox="0 0 442.744 359.421"><path d="m1.5 1.5 81.105 131.788v165.505c0 32.655 26.472 59.128 59.128 59.128h240.383c32.656 0 59.128-26.472 59.128-59.128V112.587c0-32.655-26.472-59.128-59.128-59.128H141.733c-.539 0-1.071.026-1.606.041l.029-.041z" fill="#fff"/><path d="M382.116 359.421H141.733c-33.43 0-60.627-27.198-60.627-60.628v-165.08L.222 2.286A1.5 1.5 0 0 1 2.026.095l138.477 51.892.072-.002c.385-.013.77-.026 1.158-.026h240.383c33.43 0 60.628 27.198 60.628 60.628v186.206c0 33.43-27.198 60.628-60.628 60.628zM5.071 4.44l78.812 128.062c.146.236.223.509.223.786v165.505c0 31.776 25.852 57.628 57.627 57.628h240.383c31.776 0 57.628-25.852 57.628-57.628V112.587c0-31.776-25.852-57.628-57.628-57.628H141.733c-.354 0-.705.012-1.057.024l-.509.016a1.48 1.48 0 0 1-.904-.273z" fill="#001332"/></svg></g><g transform="translate(723.6 2012.3999999999999) rotate(0.0 252.59999999999997 160.19999999999993) scale(1.2022131001249328 1.2005080801987353)"><svg width="420.225" height="266.887" viewBox="0 0 420.225 266.887"><path d="m1.5 1.5 110.34 71.671v141.621c0 27.943 22.652 50.595 50.595 50.595h205.694c27.943 0 50.595-22.652 50.595-50.595V55.456c0-27.943-22.652-50.595-50.595-50.595H162.435c-.461 0-.916.023-1.374.035l.025-.035z" fill="#fff"/><path d="M368.13 266.887H162.436c-28.726 0-52.095-23.37-52.095-52.095V73.985L.683 2.758C.121 2.393-.131 1.699.066 1.059S.848-.018 1.532 0l159.586 3.361a1.6 1.6 0 0 1 .24.024l.08-.002c.332-.011.663-.022.998-.022H368.13c28.726 0 52.095 23.37 52.095 52.095v159.335c0 28.726-23.37 52.095-52.095 52.095zM6.733 3.111l105.924 68.802a1.5 1.5 0 0 1 .683 1.258v141.621c0 27.071 22.024 49.095 49.095 49.095h205.694c27.071 0 49.095-22.024 49.095-49.095V55.456c0-27.071-22.024-49.095-49.095-49.095H162.435c-.3 0-.598.01-.896.021l-.438.014a1.515 1.515 0 0 1-.395-.042z" fill="#001332"/><path d="M333.222 156.402c-1.481 0-4.915.914-5.249 1.052l-45.381 18.758-2.22-1.517c.615-1.543 1.432-3.005 1.432-4.762 0-5.057-2.831-9.446-6.937-11.752-.005-.012-40.804-18.102-57.952-25.704a22.602 22.602 0 0 0-15.296-1.091l-30.596 8.627v54.366l32.191-10.73s66.687 28.193 66.647 28.173c1.977.875 4.183 1.41 6.531 1.41 2.551 0 4.928-.636 7.019-1.644.163-.058 56.254-29.779 56.254-29.779 4.505-2.54 7.088-7.289 7.088-11.877 0-7.441-6.09-13.531-13.531-13.531z" fill="#fff"/><path d="M276.393 214.732c-2.43 0-4.831-.518-7.138-1.538l.011-.025a7.83 7.83 0 0 1-.736-.281l-65.377-27.637-31.654 10.551a1.5 1.5 0 0 1-1.974-1.423v-54.367a1.5 1.5 0 0 1 1.093-1.444l30.597-8.627a24.159 24.159 0 0 1 16.311 1.163l51.307 22.752c4.216 1.871 5.964 2.646 6.734 3.082l.038-.067c4.75 2.669 7.702 7.673 7.702 13.06 0 1.616-.552 2.994-1.074 4.215l.539.368 44.631-18.448c.452-.187 4.098-1.166 5.822-1.166 8.288 0 15.031 6.743 15.031 15.031 0 5.319-3.082 10.494-7.851 13.183-49.469 26.213-55.512 29.397-56.343 29.817l.003.007c-2.469 1.189-5.049 1.792-7.67 1.792zm-5.961-4.297.037.016c3.994 1.767 8.322 1.699 12.292-.214 1.031-.525 37.174-19.67 56.203-29.753 3.808-2.147 6.29-6.296 6.29-10.551 0-6.634-5.397-12.031-12.031-12.031-1.188 0-4.262.793-4.708.951l-45.349 18.746a1.499 1.499 0 0 1-1.419-.148l-2.22-1.517a1.5 1.5 0 0 1-.547-1.794c.128-.322.265-.64.401-.959.496-1.155.924-2.152.924-3.248 0-4.284-2.342-8.268-6.117-10.414-1.205-.541-22.203-9.854-57.879-25.671a21.147 21.147 0 0 0-14.281-1.018l-29.504 8.319v51.15l30.217-10.072a1.496 1.496 0 0 1 1.058.041c.66.279 65.81 27.822 66.633 28.167zm12.98 1.154h.01z" fill="#001332"/><path d="m248.554 119.165 13.795-.164a40.69 40.69 0 0 0 5.439 5.439l-.164 13.795 12.384 5.132 9.53-9.762c1.292.138 2.582.285 3.954.285s2.661-.147 3.954-.285l9.53 9.762 12.384-5.132-.164-13.795a40.69 40.69 0 0 0 5.439-5.439l13.79.164 5.132-12.384-9.762-9.524c.139-1.293.291-2.585.291-3.959s-.152-2.661-.291-3.954l9.762-9.53-5.132-12.384-13.795.164a40.615 40.615 0 0 0-5.434-5.434l.164-13.795-12.384-5.132-9.53 9.762c-1.293-.139-2.58-.291-3.954-.291s-2.666.152-3.959.291l-9.524-9.762-12.384 5.132.164 13.79a40.63 40.63 0 0 0-5.439 5.439l-13.795-.164-5.132 12.384 9.762 9.53c-.139 1.293-.285 2.58-.285 3.954s.147 2.662.285 3.954l-9.762 9.53 5.132 12.384z" fill="#4c00fe"/><circle cx="294.269" cy="92.912" fill="#fff" r="19.363"/><g fill="#001332"><path d="M294.269 113.776c-11.504 0-20.863-9.359-20.863-20.864s9.359-20.863 20.863-20.863 20.864 9.359 20.864 20.863-9.359 20.864-20.864 20.864zm0-38.727c-9.85 0-17.863 8.014-17.863 17.863s8.014 17.864 17.863 17.864 17.864-8.014 17.864-17.864-8.014-17.863-17.864-17.863zm-25.978 107.499c-1.32 0-2.18-.166-2.292-.189a1.565 1.565 0 0 1-.225-.064l-40.236-15.033a1.5 1.5 0 1 1 1.05-2.81l40.11 14.986c.927.152 7.605.987 12.465-5.63a1.5 1.5 0 0 1 2.418 1.776c-4.426 6.027-10.154 6.965-13.291 6.965z"/></g></svg></g><g transform="translate(2228.4 1576.8) rotate(0.0 173.39999999999986 116.39999999999998) scale(0.9411841333941242 0.9355484290984495)"><svg width="368.472" height="248.838" viewBox="0 0 368.472 248.838"><path d="M0 99.486h230.335v73.926H0zm14.469 73.926h230.335v73.926H14.469z" fill="#8eb52d"/><g fill="#001332"><path d="M244.803 174.912H14.468a1.5 1.5 0 0 1 0-3h230.335a1.5 1.5 0 0 1 0 3z"/><path d="M47.127 173.206a1.5 1.5 0 0 1-1.5-1.5V99.487a1.5 1.5 0 0 1 3 0v72.219a1.5 1.5 0 0 1-1.5 1.5zM97.3 248.838a1.5 1.5 0 0 1-1.5-1.5v-73.926a1.5 1.5 0 0 1 3 0v73.926a1.5 1.5 0 0 1-1.5 1.5zm42.643-1.377a1.5 1.5 0 0 1-1.5-1.5v-73.926a1.5 1.5 0 0 1 3 0v73.926a1.5 1.5 0 0 1-1.5 1.5z"/></g><circle cx="244.803" cy="123.669" fill="#8eb52d" r="123.669"/><path d="M244.803 211.381c-48.364 0-87.712-39.347-87.712-87.712s39.348-87.712 87.712-87.712 87.712 39.347 87.712 87.712-39.348 87.712-87.712 87.712zm0-172.424c-46.71 0-84.712 38.002-84.712 84.712s38.002 84.712 84.712 84.712 84.712-38.002 84.712-84.712-38.002-84.712-84.712-84.712z" fill="#001332"/><path d="M244.803 248.838c-69.019 0-125.169-56.151-125.169-125.169 0-8.231.805-16.466 2.392-24.475a1.5 1.5 0 0 1 2.944.583 123.126 123.126 0 0 0-2.335 23.892c0 67.364 54.805 122.169 122.169 122.169a1.5 1.5 0 0 1-.001 3z" fill="#001332"/></svg></g></svg>