<svg xmlns="http://www.w3.org/2000/svg" viewBox="0 0 1600 1200" width="1600" height="1200"><g transform="translate(-91.0 -99.0) rotate(0 895.5 671.5) scale(2.23875 2.2383333333333333)"><svg width="800" height="600" viewBox="0 0 800 600"><radialGradient id="a" cx="676.743" cy="-664.287" gradientTransform="matrix(1.339 0 0 1.02 -506.159 1033.807)" gradientUnits="userSpaceOnUse" r="264.36"><stop offset="0" stop-color="#f2f2f2"/><stop offset=".672" stop-color="#f4f4f4"/><stop offset=".921" stop-color="#fbfbfb"/><stop offset="1" stop-color="#fff"/></radialGradient><radialGradient id="b" cx="398.5" cy="-49.742" gradientTransform="matrix(1 0 0 1.133 0 494.247)" gradientUnits="userSpaceOnUse" r="333.458"><stop offset="0" stop-color="#fff" stop-opacity="0"/><stop offset="1" stop-color="#fff"/></radialGradient><path d="M0 0h800v600H0z" fill="#fff"/><path d="M0 0h800v600H0z" fill="#fff"/><path d="M0 84h800v495H0z" fill="url(#a)"/><path d="M0 433.1h800V600H0z" fill="#fff"/><path d="M126.5 98h275.9v330.2H126.5z" fill="#d3d3d3"/><g fill="#e0e0e0"><path d="M408.5 433.1h-288V93h288zm-271-13.9h254V106.9h-254z"/><path d="M126.5 201h275.9v13.9H126.5zm0 108h275.9v13.9H126.5z"/></g><path d="M287.2 135.4h89.5V201h-89.5z" fill="#f5f5f5"/><path d="M289.4 137h85.1v62.4h-85.1z" fill="#f5f5f5"/><path d="M287.2 141.2h13.1v5.7h-13.1z" fill="#eaeaea"/><path d="M345 141.2h22.6V156H345z" fill="#fafafa" opacity=".64"/><path d="M345 186.3h9.2v7.5H345zm13.4 0h9.2v7.5h-9.2z" fill="#eaeaea"/><path d="M325.6 135.4h12.6V156h-12.6z" fill="#eae9e8"/><path d="M160 353.6h89.5v65.6H160z" fill="#f5f5f5"/><path d="M162.1 355.2h85.1v62.4h-85.1z" fill="#f5f5f5"/><path d="M160 359.4h13.1v5.7H160z" fill="#eaeaea"/><path d="M217.8 359.4h22.6v14.8h-22.6z" fill="#fafafa" opacity=".64"/><path d="M231.2 404.5h9.2v7.5h-9.2z" fill="#eaeaea"/><path d="M198.4 353.6H211v20.6h-12.6z" fill="#eae9e8"/><path d="M256.9 332.2h118.7v87H256.9z" fill="#f5f5f5"/><path d="M259.8 334.3h113v82.8h-113z" fill="#f5f5f5"/><path d="M256.9 339.9h17.4v7.6h-17.4z" fill="#eaeaea"/><path d="M333.6 339.9h30v19.6h-30z" fill="#fafafa" opacity=".64"/><path d="M333.6 399.6h12.2v10h-12.2zm17.8 0h12.2v10h-12.2z" fill="#eaeaea"/><path d="M307.9 332.2h16.7v27.3h-16.7z" fill="#eae9e8"/><path d="M147.1 243.4h155.4V309H147.1z" fill="#f5f5f5"/><path d="M149.3 245h151.1v62.4H149.3z" fill="#f5f5f5"/><path d="M147.1 249.2h13.1v5.7h-13.1z" fill="#eaeaea"/><path d="M270.9 249.2h22.6V264h-22.6z" fill="#fafafa" opacity=".64"/><path d="M218.5 243.4h12.6V264h-12.6z" fill="#eae9e8"/><path d="M172.1 125.9h102.5V201H172.1z" fill="#f5f5f5"/><path d="M174.6 127.7h97.5v71.5h-97.5z" fill="#f5f5f5"/><path d="M172.1 132.5h15v6.6h-15zm66.3 51.6h10.5v8.6h-10.5z" fill="#eaeaea"/><path d="M216.2 125.9h14.4v23.6h-14.4z" fill="#eae9e8"/><path d="M311.5 226.5h72.1V309h-72.1z" fill="#f5f5f5"/><path d="M313.3 227.8h68.6v79.9h-68.6z" fill="#f5f5f5"/><path d="M311.5 231.2H322v4.6h-10.5z" fill="#eaeaea"/><path d="M358.1 231.2h18.2v11.9h-18.2z" fill="#fafafa" opacity=".64"/><path d="M358.1 297.1h7.4v6.1h-7.4z" fill="#eaeaea"/><path d="M342.5 226.5h10.1v16.6h-10.1z" fill="#eae9e8"/><path d="M397.5 98h275.9v330.2H397.5z" fill="#d3d3d3"/><path d="M679.5 433.1h-288V93h288zm-271-13.9h254V106.9h-254z" fill="#e0e0e0"/><path d="M397.5 201h275.9v13.9H397.5zm0 108h275.9v13.9H397.5z" fill="#e0e0e0"/><path d="M408.3 342.1h182.8v77.1H408.3z" fill="#f5f5f5"/><path d="M410.8 344h177.7v73.4H410.8z" fill="#f5f5f5"/><path d="M408.3 348.9h15.4v6.7h-15.4z" fill="#eaeaea"/><path d="M553.8 348.9h26.5v17.4h-26.5z" fill="#fafafa" opacity=".64"/><path d="M553.8 401.9h10.8v8.8h-10.8z" fill="#eaeaea"/><path d="M492.2 342.1H507v24.2h-14.8z" fill="#eae9e8"/><path d="M517.4 233.9h102.5V309H517.4z" fill="#f5f5f5"/><path d="M519.9 235.7h97.5v71.5h-97.5z" fill="#f5f5f5"/><path d="M517.4 240.5h15v6.6h-15zm81.6 51.6h10.5v8.6H599z" fill="#eaeaea"/><path d="M561.4 233.9h14.4v23.6h-14.4z" fill="#eae9e8"/><path d="M456.7 118.9h112V201h-112z" fill="#f5f5f5"/><path d="M459.4 120.9H566V199H459.4z" fill="#f5f5f5"/><path d="M456.7 126.2h16.4v7.2h-16.4zm72.3 56.3h11.5v9.4H529z" fill="#eaeaea"/><path d="M504.8 118.9h15.8v25.8h-15.8z" fill="#eae9e8"/><path d="M428.6 266.5h60.7V309h-60.7z" fill="#f5f5f5"/><path d="M430.1 267.5h57.8v40.4h-57.8z" fill="#f5f5f5"/><path d="M428.6 270.4h8.9v3.9h-8.9zm39.3 28.6h6.2v5.1h-6.2z" fill="#eaeaea"/><path d="M454.7 266.5h8.5v14h-8.5z" fill="#eae9e8"/><path d="M417.1 224.7h60.7v42.5h-60.7z" fill="#f5f5f5"/><path d="M418.6 225.8h57.8v40.4h-57.8z" fill="#f5f5f5"/><path d="M417.1 228.6h8.9v3.9h-8.9zm39.2 28.6h6.2v5.1h-6.2zm9.1 0h6.2v5.1h-6.2z" fill="#eaeaea"/><path d="M443.2 224.7h8.5v14h-8.5z" fill="#eae9e8"/><path d="M0 0h800v466H0z" fill="url(#b)"/></svg></g><g transform="translate(251.0 256.0) rotate(0 410.0 400.5) scale(3.392635498551924 3.3940677966101696)"><svg width="241.7" height="236" viewBox="0 0 241.7 236"><path d="M71.1 0h112.7v101.2H71.1z" fill="#e0af73"/><path d="M73.8 2.4h107.3v96.3H73.8z" fill="#e7b674"/><path d="M71.1 8.9h16.5v8.8H71.1zm73.8-1.6h28.4v22.8h-28.4z" fill="#e8d7c8"/><path d="M147.4 20.4h18v1.1h-18zm0 2.9h19.9v1.1h-19.9zm0-12.4h3v3h-3z" fill="#997b5e"/><path d="M119.5 0h15.9v31.8h-15.9z" fill="#d39f66"/><path d="M5.8 46.8h58.3v54.4H5.8z" fill="#e0af73"/><path d="M7.3 48.1h55.5v51.8H7.3z" fill="#e7b674"/><path d="M5.8 51.4h8.5V56H5.8zm33.79 35.345 4.547-10.888 13.564 5.666-4.548 10.888z" fill="#e8d7c8"/><g fill="#997b5e"><path d="m43.141 81.786.193-.461 10.427 4.355-.193.461zm-.579 1.388.193-.462 8.581 3.585-.193.461zm-.614 1.326.193-.462 9.504 3.97-.193.461zm2.092-4.884.616-1.476 1.476.617-.616 1.476zm2.1.891.617-1.476 1.476.616-.617 1.477z"/></g><path d="M30.9 46.8h8.2v16.4h-8.2z" fill="#d39f66"/><path d="M128.9 101.1h112.8V236H128.9z" fill="#e0af73"/><path d="M132 103.5h107v130.1H132z" fill="#e7b674"/><path d="M225.2 109.9h16.5v8.8h-16.5zm-84.6.1H169v22.8h-28.4z" fill="#e8d7c8"/><path d="M143.1 120.1h21.8v1.1h-21.8zm0 2.9h18v1.1h-18zm0 2.9H163v1.1h-19.9zm0-12.4h3v3h-3zm4.4 0h3v3h-3z" fill="#997b5e"/><path d="M177.6 101h15.8v31.7h-15.8zm44.6 117H234v11.8h-11.8z" fill="#d39f66"/><path d="M0 101.1h129.2V236H0z" fill="#e0af73"/><path d="M3.1 103.9h123v129.3H3.1z" fill="#e7b674"/><path d="M0 111.3h18.9v10.1H0zm79 36.1h38.6v31H79z" fill="#e8d7c8"/><path d="M82.4 161.2h29.7v1.4H82.4zm0 4h24.4v1.4H82.4zm0-12.9h4.1v4.1h-4.1zm6 0h4.1v4.1h-4.1z" fill="#997b5e"/><path d="m66.524 171.41 35.172-15.9 12.77 28.247-35.173 15.9z" fill="#e8d7c8"/><path d="m75.211 182.56 27.063-12.233.576 1.276-27.062 12.233zm3.239 7.244 13.485-6.096.577 1.276-13.486 6.096zm-1.569-3.633 22.234-10.05.576 1.276-22.233 10.05zm-5.355-11.645 3.736-1.688 1.689 3.736-3.736 1.688z" fill="#997b5e"/><path d="M55.5 101.1h18.2v36.4H55.5zm37 115.5h11.8v11.8H92.5zm17.2 0h11.8v11.8h-11.8z" fill="#d39f66"/></svg></g><g transform="translate(867.0 175.0) rotate(0 247.5 446.5) scale(2.8345645078165265 2.825162612943231)"><svg width="174.63" height="316.088" viewBox="0 0 174.63 316.088"><linearGradient id="c"><stop offset="0" stop-color="#ffbeb6"/><stop offset="1" stop-color="#f8afa9"/></linearGradient><linearGradient xmlns:xlink="http://www.w3.org/1999/xlink" id="d" gradientUnits="userSpaceOnUse" x1="92.26" x2="100.321" xlink:href="#c" y1="91.32" y2="88.356"/><linearGradient id="e" gradientUnits="userSpaceOnUse" x1="68.289" x2="106.322" y1="170.866" y2="257.957"><stop offset="0" stop-color="#23286b"/><stop offset="1" stop-color="#151a4f"/></linearGradient><linearGradient id="f" gradientUnits="userSpaceOnUse" x1="42.987" x2="39.616" y1="42.981" y2="122.881"><stop offset="0" stop-color="#a1c3fc"/><stop offset="1" stop-color="#89b3f4"/></linearGradient><linearGradient id="g" gradientUnits="userSpaceOnUse" x1="118.684" x2="174.631" y1="305.649" y2="305.649"><stop offset="0" stop-color="#428dfc"/><stop offset="1" stop-color="#1d72d8"/></linearGradient><linearGradient xmlns:xlink="http://www.w3.org/1999/xlink" id="h" gradientUnits="userSpaceOnUse" x1="87.588" x2="97.808" xlink:href="#c" y1="22.581" y2="15.595"/><linearGradient xmlns:xlink="http://www.w3.org/1999/xlink" id="i" gradientUnits="userSpaceOnUse" x1="102.1" x2="79.102" xlink:href="#c" y1="139.775" y2="107.294"/><linearGradient xmlns:xlink="http://www.w3.org/1999/xlink" id="j" gradientUnits="userSpaceOnUse" x1="102.534" x2="79.537" xlink:href="#c" y1="139.468" y2="106.987"/><path d="M98.557 187.081c-4.977 2.673-8.646 1.174-13.779 1.957-6.838 1.044-4.677 5.142-4.369 10.831.509 9.395-1.046 18.968.215 27.903 4.079-2.482 6.017-5.983 7.58-10.317 1.819-5.044 2.739-6.101 7.38-8.841 4.051-2.391 7.661-4.985 11.858-7.096 3.852-1.938 9.529-3.209 12.465-6.242-2.212-4.441-2.37-9.069-3.245-13.716-5.903.921-12.694 5.76-18.105 5.521z" fill="#ffbeb6"/><path d="M87.64 188.542c-5.439-.793-16.314-1.834-16.785.122.057 7.286-.353 18.666-.315 26.765.041 8.874.005 18.492.475 26.904.294 5.253 15.821-7.676 16.282-27.517.093-4.02.294-6.321.226-11.053-.072-4.961-.238-13.408.117-15.221z" fill="#428dfc"/><path d="M103.75 106.958c-1.67 1.337-7.38 5.519-8.081 5.006-1.928-1.789-.481-2.799 1.005-4.024-1.092.241-3.976.729-3.636-1.176.156-.871 3.434-2.892 4.018-3.551 1.881-2.123 1.978-2.86 4.199-.743 1.073 1.023 2.652 3.421 2.495 4.488z" fill="#f2a19c"/><path d="M54 80.958c4.043 1.987 7.745 4.29 12.263 5.769 5.393 1.764 10.981 2.932 16.424 4.538 5.431 1.603 12.637 2.255 17.563 5.013 2.399 1.343 2.444 3.838 3.575 6.456 1.039 2.405 2.493 4.682 3.668 6.976.714 1.395 2.79 3.94 2.706 5.499-.222 4.112-3.038-.407-3.894-1.75-1.223-1.921-2.549-3.722-3.617-5.75-.963-1.828-1.91-5.074-3.689-6.206-1.247-.793-4.768-1.874-6.249-1.982-2.273-.165-17.669 3.345-19.75 2.188-2.111-1.174-8.542-.799-11-.75-3.728.074-10.973-2.175-12.512-3.743-.885-.901-1.598-2.268-2.488-3.251-2.011-2.221-3.1-4.678-3.812-7.575-.631-2.564-1.685-5.379-.195-7.431 1.285-1.769 4.608-3.436 6.707-3.719.784 1.546 2.94 5.049 4.3 5.718z" fill="url(#d)"/><path d="M143.417 139.684h-36.428l22.844-46.304h36.428z" fill="#a1c3fc"/><path d="m141.781 136.053-28.531-2.845 17.599-36.197h30.193z" fill="#428dfc"/><path d="M118.317 286.118c2.653 4.988 1.137 8.65 1.9 13.787 1.015 6.842 5.122 4.698 10.813 4.414 9.397-.47 18.964 1.125 27.904-.098-2.465-4.09-5.957-6.042-10.285-7.623-5.037-1.84-6.09-2.765-8.81-7.417-2.375-4.061-4.953-7.682-7.047-11.887-1.922-3.86-3.169-9.542-6.19-12.491-4.45 2.193-9.079 2.332-13.729 3.188.895 5.906 5.705 12.718 5.444 18.127z" fill="#ffbeb6"/><path d="M64.236 115.349c-1.431 3.926-.775 5.473-.236 9.526.826 6.212 2.294 6.343 8.667 7.333 13.378 2.079 28.633 5.478 42 8 10.448 1.971 27.123 5.599 31.725 17.053 4.152 10.336-7.002 22.917-14.174 29.366-9.572 8.608-20.568 15.268-29.807 24.25-5.926 5.762-14.593 15.392-17.536 23.024.958-5.714-1.685-14.344-2.563-20.267-1.08-7.281-1.82-13.262 1.687-20.177 1.411-2.783 5.967-7.055 8.349-9.049 3.693-3.092-.619-8.043 2.901-9.451 11.25-4.5 7.585-3.404 13.063-7.052-2.429 5.92-21.766 1.002-26.98-.046-9.187-1.847-18.46-2.076-27.574-3.997-4.886-1.03-10.456-1.575-13.677-6.051-2.933-4.076-7.278-10.202-8.38-14.888-2.82-11.986-1.471-23.197-1.022-35.267 9.313 5.776 23.26 4.088 33.974 6.945-.929-.885.774 1.278-.417.748z" fill="#151a4f"/><path d="M23.427 101.562c-2.974 7.831-1.17 21.655.521 30.344 2.222 11.414 7.76 18.288 14.935 26.995 12.435 15.09 35.628 32.821 37.913 53.508 1.113 10.074 1.816 18.758 7.431 27.878 5.339 8.673 13.839 11.717 14.606 22.587.766 10.857 3 24.333 12.563 29.728 0 0 20.926.815 30.529-.272-4.892-9.059-9.79-20.896-13.595-28.511-4.699-9.405-8.795-18.995-12.102-28.828-6.78-20.159-8.405-45.251-19.994-63.514-4.52-7.124-10.692-13.241-16.557-19.183-2.999-3.038-5.878-5.955-8.231-9.33-2.638-3.784-3.424-5.638-5.114-10.09-3.634-9.576-6.071-21.519-3.27-31.217-13.216.033-26.513.405-39.511-.605.488-.945-.657 1.431-.124.51z" fill="url(#e)"/><path d="M40.519 29.316c-8.833 6.563-10.223 13.393-13.368 23.699-5.719 18.737-10.327 41.52-22.25 57.366 12.52 14.037 37 14.706 53.821 12.136 6.085-.929 16.278-2.976 16.278-2.976s-8.239-16.033-9.081-21.258c-1.748-10.857-1.754-20.128-.551-30.885 1.035-9.265 2.097-18.402 3.709-27.174 1.481-8.056-1.245-14.937-11.827-16.017-5.461-.556-11.626 1.316-16.731 5.109z" fill="url(#f)"/><path d="M71.406 15.531c-3.741 4.245-9.156 7.427-13.594 9.498C59.471 29.51 65.058 33.72 70 35.208c3.134-4.433 6.631-3.379 10.063-7.543-3.839-3.126-6.165-6.649-7.79-11.444-.063 1.639-1.455-2.268-.867-.69z" fill="#f2a19c"/><path d="M119.731 297.041c-.815 5.435-1.902 16.306.051 16.785 7.286-.026 18.664.431 26.763.427 8.874-.004 18.492.073 26.905-.362 5.254-.272-7.61-15.853-27.449-16.397-4.019-.11-6.32-.32-11.052-.272-4.959.051-13.406.182-15.218-.181z" fill="url(#g)"/><path d="m141.887 143.691-44.722 1.896v-6.533h46.637v2.64a2 2 0 0 1-1.915 1.997z" fill="#8cb6f1"/><path d="m102.413 146.383-23.455-5.508a2 2 0 0 1-1.543-1.947v-3.375l24.998 4.296z" fill="#78a9ef"/><path d="M79.758 9.736c4.968-6.762 12.227-8.273 20.663-3.998 6.625 3.358 6.94 15.184 1.769 22.94-2.717 4.075-9.372 14.542-22.298 10.988-10.339-2.843-4.451-19.782-3.064-25.169-.152.684 2.247-5.29 2.93-4.761z" fill="url(#h)"/><path d="M98.015 12.96c4.019-.336 2.559 21.858 2.559 21.858l10.591-.297s2.344-21.378-8.936-25.578c-1.834 1.519-2.745 2.104-4.214 4.017z" fill="#e94a47"/><path d="m113.502 34.349-.05-.002a.5.5 0 0 1-.449-.546c.735-7.545-4.023-20.417-10.085-23.751a.5.5 0 0 1 .483-.876c6.532 3.593 11.368 16.818 10.599 24.724a.502.502 0 0 1-.498.451z" fill="#e94a47"/><path d="M86.75 98.458c.701.129 1.651 2.767 2.556 3.75 1.317 1.429 2.89 2.041 4.694 2.493 2.326.582 8.107 1.413 10.249.026 4.323-2.8-4.951-4.053-6.499-4.27-2.595-.363-8.498-4.098-10.329-2.141.193-.12-.864.261-.671.142z" fill="#ffbeb6"/><path d="m109.298 134.938-32.031.62 21.983 3.9 44.552-.405z" fill="#c3d9fd"/><path d="M110.62 134.989c-2.811-.849-4.835-3.334-8.049-4.555-5.889-2.237-9.666-11.303-13.019-16.447-3.76-5.769-7.371-10.027-12-14.865-3.768-3.938-8.045-10.436-12.85-13.028.035.268.069.613.109.856-4.185.693-6.606-2.844-8.113 2.589-.815 2.939 1.45 9.711 2.551 12.312 2.779 6.562 8.108 12.522 12.984 17.556 5.185 5.352 12.706 7.538 17.564 12.533 4.292 4.413 1.594 10.944 5.84 15.447 1.076.676 3.088-.576 4.394-.086 1.086.407 4.861-.188 7.739-1.624 2.841 1.004 1.312 2.38 4.666.24 1.154-.865-2.089-4.577-5.824-8.331-.181-.262-.38-.548-.612-.876 2.976 3.061 7.5 2.75 11.75 2 .986-.906-1.71-2.084-7.13-3.721z" fill="url(#i)"/><path d="M64.524 85.992c.06.031.118.069.177.101-.049-.379-.101-.593-.177-.101z" fill="url(#j)"/><path d="M62.333 35.874c6.333-.333 8.525 2.831 10.333 11.667 1.465 7.157 1.332 10.238.973 17.651-.642 13.273 4.218 26.345 12.983 37.056-4.781 6.084-25.009 7.698-32.29 7.959-1.266-24.31 6.291-28.732-1-46C47 49.208 50.957 36.473 62.333 35.874z" fill="#a1c3fc"/><path d="M105.099 10.258C100.251-4.285 77.619-1.253 71.166 6.38c-7.755 9.173-6.723 30.285-6.14 41.688 3.037.729 23.591.323 23.591.323s-2.541-16.817 1.153-23.065c1.221-2.066 11.446-.013 13.459-2.183 3.363-3.624.953-12.656 1.87-12.885z" fill="#e94a47"/><path d="M98.083 37.456a.496.496 0 0 1-.188-.037c-2.546-1.036-2.869-1.677-3.595-3.741a.5.5 0 1 1 .944-.332c.65 1.85.786 2.234 3.028 3.147a.5.5 0 0 1-.189.963z" fill="#23286b"/><path d="M33.843 147.485c-.001-.085-.072-.153-.157-.152s-.153.072-.152.157.072.153.157.152a.153.153 0 0 0 .152-.157zm-6.527-14.448a.158.158 0 0 0-.003-.224.144.144 0 0 0-.218.011.153.153 0 0 0-.003.215.16.16 0 0 0 .224-.002zm2.835 7.529a.173.173 0 0 0 .08-.213.16.16 0 1 0-.293.133.172.172 0 0 0 .213.08zm20.578-1.657a.3.3 0 0 0 .173-.384.287.287 0 0 0-.36-.184l-.015.005a.3.3 0 0 0 .202.563zm-6.731 2.471a.295.295 0 0 0 .167-.386.296.296 0 0 0-.379-.171.293.293 0 0 0-.179.374.32.32 0 0 0 .391.183zm-6.745 2.469a.29.29 0 0 0 .176-.373l-.004-.009a.287.287 0 0 0-.36-.184l-.015.005a.319.319 0 0 0-.183.39c.062.15.232.227.386.171zm12.655 10.376a.293.293 0 0 0-.292-.297.293.293 0 0 0-.297.292.296.296 0 0 0 .284.297.303.303 0 0 0 .305-.292zm-7.171-.295a.295.295 0 1 0-.305.292.305.305 0 0 0 .305-.292zm-2.161-25.361a.3.3 0 0 0 .011-.421.29.29 0 0 0-.409-.02l-.002.002a.285.285 0 0 0-.042.4l.015.018a.317.317 0 0 0 .427.021zm-5.285 4.862a.315.315 0 0 0 .021-.426.3.3 0 0 0-.421-.012.294.294 0 0 0-.016.417l.003.003a.29.29 0 0 0 .413.018zm-5.277 4.854a.283.283 0 0 0 .027-.4l-.01-.01a.294.294 0 0 0-.415-.031l-.011.01a.298.298 0 0 0 .405.436l.004-.005zm19.419 22.963a.264.264 0 1 0-.298.224.269.269 0 0 0 .298-.224zm-6.934-25.905a.28.28 0 0 0 .049-.382.256.256 0 0 0-.367-.045.263.263 0 0 0-.058.368l.003.004a.278.278 0 0 0 .373.055zm-5.101 3.856a.263.263 0 0 0 .047-.367.256.256 0 0 0-.367-.045.264.264 0 0 0-.059.368l.003.004a.27.27 0 0 0 .376.04zm-5.112 3.877a.264.264 0 0 0 .059-.368l-.003-.004a.25.25 0 0 0-.368-.045.264.264 0 0 0-.059.368l.003.004a.272.272 0 0 0 .368.045zm13.17 5.996a.267.267 0 0 0 .182-.328.26.26 0 0 0-.318-.188.279.279 0 0 0-.198.324.276.276 0 0 0 .334.192zm-6.203 1.614a.254.254 0 0 0 .193-.303l-.003-.015a.26.26 0 0 0-.318-.188.279.279 0 0 0-.198.324c.04.139.185.221.326.182zm-8.285-21.401a.251.251 0 0 0-.081-.345l-.014-.008a.264.264 0 0 0-.368.092.272.272 0 0 0 .102.362.26.26 0 0 0 .356-.091l.005-.01zm-3.237 5.533a.272.272 0 0 0-.093-.368.268.268 0 0 0-.274.46.261.261 0 0 0 .36-.079l.007-.013zm27.96 23.765a.317.317 0 0 0 .211-.383.306.306 0 0 0-.373-.217.314.314 0 0 0-.211.383c.044.163.21.26.373.217zm-7.14 1.938a.306.306 0 1 0-.157-.59.306.306 0 0 0 .157.59zm-11.73-26.708a.322.322 0 0 0-.117-.428.308.308 0 0 0-.301.538.31.31 0 0 0 .418-.11zm-3.673 6.419a.314.314 0 0 0-.112-.419.306.306 0 1 0 .112.419zm13.14 6.628a.327.327 0 0 0 .054-.435.309.309 0 0 0-.429-.045.3.3 0 0 0-.059.426.309.309 0 0 0 .434.054zm-5.856 4.529a.31.31 0 0 0 .055-.434v-.001a.297.297 0 0 0-.419-.05.303.303 0 0 0-.056.425.3.3 0 0 0 .42.06zm9.861-1.413a.304.304 0 1 0-.432-.069.309.309 0 0 0 .432.069zm-6.011 4.263a.31.31 0 0 0 .068-.431.314.314 0 0 0-.422-.074.325.325 0 0 0-.077.436.314.314 0 0 0 .431.069zm-7.391-11.867a.312.312 0 0 0-.103-.424.302.302 0 0 0-.415.097.297.297 0 0 0 .076.413.027.027 0 0 0 .012.006c.141.094.33.056.424-.085.003-.001.005-.004.006-.007z" fill="#fff"/></svg></g></svg>