<svg xmlns="http://www.w3.org/2000/svg" viewBox="0 0 3000 3000" width="3000" height="3000"><g transform="translate(82.0 108.0) rotate(0.0 1419.0 1391.0) scale(2.659295352323838 2.657877137670775)"><svg width="1067.2" height="1046.7" viewBox="0 0 1067.2 1046.7"><path d="M1067.2 1046.7H0V0h1067.2v1046.7zM3 1043.7h1061.2V3H3v1040.7z" style="opacity:.3;fill:#c4ecfe;enable-background:new"/><path style="opacity:.3;fill:#c4ecfe;enable-background:new" d="M176.2 1.5h3v1043.7h-3zm176.1 0h3v1043.7h-3zm176.2 0h3v1043.7h-3zm176.2 0h3v1043.7h-3zm176.2 0h3v1043.7h-3z"/><linearGradient id="a" gradientUnits="userSpaceOnUse" x1="619.807" y1="-1674.487" x2="619.807" y2="-1937.322" gradientTransform="matrix(1 0 0 -1 0 -904.7088)"><stop offset="0" style="stop-color:#c0ddfc"/><stop offset=".996" style="stop-color:#fff"/></linearGradient><path d="M175.1 1043.6c294.9 0 400.3-276.5 556.3-245.2 90.7 18.2 150.5-29 206.8-71.8 45.8-34.7 126.4-11.2 126.4 36.9v280l-622.1.1H175.1z" style="fill:url(#a)"/><path d="m391.5 178.9-9.9.5c-.4-7.6-11.8-13.2-29.1-26.6-30-23.1-58.2-38.3-59.7-65.7l9.9-.5c1.3 22.9 29.1 37.7 56 58.4 22.6 17.5 32.2 21.7 32.8 33.9z" style="fill:#dbecfd"/><path d="m146.4 618.4.1 9.9c-7.6 0-13.8 11.1-28 27.8-24.5 28.8-41.1 56.3-68.6 56.4l-.1-9.9c22.9-.1 39.1-27.2 61.1-53 18.6-21.7 23.3-31.1 35.5-31.2z" style="fill:#f9d5ff"/><circle cx="962.6" cy="486.4" r="6" style="fill:#bfd9ff"/><circle cx="962.6" cy="646.1" r="6" style="fill:#f9d5ff"/><circle cx="117.1" cy="251.2" r="6" style="fill:#bfd9ff"/><circle cx="379.1" cy="110.7" r="6" style="fill:#bfd9ff"/><linearGradient id="b" gradientUnits="userSpaceOnUse" x1="-30.04" y1="238.565" x2="459.808" y2="-89.691" gradientTransform="matrix(1 0 0 -1 0 1047.2911)"><stop offset="0" style="stop-color:#c0ddfc"/><stop offset=".996" style="stop-color:#fff"/></linearGradient><path style="fill:url(#b)" d="M639.4 1043.9c-125.3 0-252.5-157.8-400.2-142.3-44.3 4.6-93.7-73.4-114-102.7-33.6-48.7-122.6-29-122.6 27.3V1044h636.8z"/></svg></g><g transform="translate(2020.0 406.0) rotate(0.0 314.0 1242.0) scale(2.6514559786532463 2.6617261143835007)"><svg width="236.851" height="933.229" viewBox="0 0 236.851 933.229"><path d="M107.702 180.574h21.447v736.234h-21.447z" fill="#fff"/><g fill="#f9d5ff"><path d="M129.149 919.808h-21.447a3 3 0 0 1-3-3V180.574a3 3 0 0 1 3-3h21.447a3 3 0 0 1 3 3v736.234a3 3 0 0 1-3 3zm-18.447-6h15.447V183.574h-15.447z"/><path d="M0 933.229h236.851c-67.304-60.646-169.547-60.646-236.851 0zm233.745-743.442H3.957L43.957 0h149.788z"/></g></svg></g><g transform="translate(952.0 1200.0) rotate(0.0 150.0 150.0) scale(2.660305580434339 2.660305580434339)"><svg width="112.769" height="112.769" viewBox="0 0 112.769 112.769"><rect fill="#fff" height="106.769" rx="13.057" width="106.769" x="3" y="3"/><path d="M96.712 112.769H16.057C7.203 112.769 0 105.566 0 96.712V16.057C0 7.203 7.203 0 16.057 0h80.655c8.854 0 16.057 7.203 16.057 16.057v80.655c0 8.854-7.203 16.057-16.057 16.057zM16.057 6C10.512 6 6 10.512 6 16.057v80.655c0 5.546 4.512 10.057 10.057 10.057h80.655c5.545 0 10.057-4.512 10.057-10.057V16.057C106.769 10.512 102.258 6 96.712 6z" fill="#f9d5ff"/><rect fill="#fff" height="64.892" rx="30.435" width="64.892" x="23.939" y="23.939"/><path d="M58.395 91.83h-4.022c-18.436 0-33.435-14.999-33.435-33.435v-4.022c0-18.436 14.999-33.435 33.435-33.435h4.022c18.436 0 33.435 14.999 33.435 33.435v4.022c0 18.436-14.999 33.435-33.435 33.435zm-4.022-64.892c-15.128 0-27.435 12.307-27.435 27.435v4.022c0 15.128 12.307 27.435 27.435 27.435h4.022c15.128 0 27.435-12.307 27.435-27.435v-4.022c0-15.128-12.307-27.435-27.435-27.435z" fill="#f9d5ff"/><g fill="#3a3a3a"><circle cx="42.718" cy="56.384" r="5.716"/><circle cx="70.051" cy="56.384" r="5.716"/></g></svg></g><g transform="translate(540.0 1156.0) rotate(0.0 149.0 169.0) scale(2.675789492587704 2.671514385077458)"><svg width="111.369" height="126.52" viewBox="0 0 111.369 126.52"><g fill="#3a3a3a"><path d="M70.387 48.479C47.025 76.514 10.986 78.37 1.874 78.37c-.723 0-1.253-.012-1.617-.023 2.62 27.037 25.403 48.173 53.127 48.173 29.483 0 53.384-23.901 53.384-53.384 0-17.05-8.003-32.221-20.446-41.995-4.67 4.531-9.998 10.213-15.936 17.338zm-34.665-9.962c3.927-6.09 8.087-12.537 13.702-18.603C23.551 21.813 2.8 42.138.264 67.83c19.486-4.556 26.933-16.093 35.458-29.313z"/><path d="M41.605 42.311c-6.819 10.574-13.817 21.411-27.518 28.058 14.045-2.029 35.733-8.145 50.922-26.371 5.66-6.792 10.812-12.348 15.414-16.887a53.02 53.02 0 0 0-21.178-7.032c-7.677 6.788-12.708 14.583-17.64 22.232z"/></g><path d="M53.384 19.752c1.982 0 3.935.116 5.861.327 5.86-5.182 13.261-9.777 23.346-13.27A3.5 3.5 0 1 0 80.3.194C66.001 5.147 56.543 12.223 49.425 19.913a54.029 54.029 0 0 1 3.96-.162z" fill="#96b5c8"/><path d="M.119 71.338c.15.007 5.753.217 13.968-.969 13.701-6.647 20.7-17.484 27.518-28.058 4.932-7.649 9.963-15.444 17.64-22.232a54.002 54.002 0 0 0-5.861-.327c-1.333 0-2.651.066-3.96.162-5.615 6.066-9.775 12.513-13.702 18.603C27.197 51.737 19.75 63.273.264 67.83a54.237 54.237 0 0 0-.219 3.513c.025 0 .048-.005.073-.004z" fill="#96b5c8"/><path d="M111.196 9.751a3.5 3.5 0 0 0-4.412-2.245c-.497.162-9.921 3.389-26.362 19.605a53.443 53.443 0 0 1 5.9 4.031c14.433-14.004 22.545-16.95 22.629-16.979a3.501 3.501 0 0 0 2.245-4.412z" fill="#be6361"/><path d="M65.009 43.998C49.82 62.225 28.132 68.341 14.087 70.369c-4.04 1.96-8.665 3.554-14.039 4.67.039 1.111.103 2.216.209 3.308.364.011.894.023 1.617.023 9.112 0 45.151-1.856 68.513-29.891 5.937-7.125 11.265-12.807 15.936-17.338a53.443 53.443 0 0 0-5.9-4.031c-4.602 4.539-9.754 10.095-15.414 16.887z" fill="#be6361"/><path d="M.119 71.338c-.025-.001-.049.005-.073.004-.02.597-.045 1.192-.045 1.794H0c0 .638.026 1.27.048 1.903 5.374-1.116 9.999-2.71 14.039-4.67-8.215 1.187-13.818.976-13.968.969z" fill="#be6361"/></svg></g><g transform="translate(752.0 822.0) rotate(0.0 1014.0 1034.0) scale(2.661165874090637 2.6606831316806563)"><svg width="762.072" height="777.244" viewBox="0 0 762.072 777.244"><linearGradient id="c" gradientUnits="userSpaceOnUse" x1="519.599" x2="500.547" y1="876.859" y2="306.147"><stop offset="0" stop-color="#ea979a"/><stop offset=".41" stop-color="#f2d38b"/><stop offset=".5" stop-color="#7e9dae"/><stop offset=".615" stop-color="#90979d"/><stop offset="1" stop-color="#7ebddb"/></linearGradient><linearGradient id="d" gradientTransform="matrix(.01670202 .99986051 -.99986051 .01670202 13619.713 619.991)" gradientUnits="userSpaceOnUse" x1="-183.754" x2="-431.472" y1="13597.62" y2="13112.64"><stop offset="0" stop-color="#ea979a"/><stop offset=".198" stop-color="#f2d38b"/><stop offset=".442" stop-color="#7e9dae"/><stop offset=".529" stop-color="#90979d"/><stop offset="1" stop-color="#7ebddb"/></linearGradient><linearGradient id="e" gradientTransform="matrix(.998 0 0 -1 1788.409 14125.524)" gradientUnits="userSpaceOnUse" x1="-1390.735" x2="-1390.735" y1="12925.718" y2="14009.967"><stop offset="0" stop-color="#ea979a"/><stop offset=".41" stop-color="#f2d38b"/><stop offset=".5" stop-color="#7e9dae"/><stop offset=".6" stop-color="#90979d"/><stop offset="1" stop-color="#7ebddb"/></linearGradient><path d="M475.275 643.044 511.53 419.64l-154.756 20.44s-23.053 226.577-20.683 280.563c4.885 47.252 39.609 53.89 67.183 54.911 58.911 2.182 289.191-61.447 289.191-61.447l-51.848-90.801-165.343 19.738z" fill="url(#c)"/><path d="M390.721 205.288c-35.537 9.716-60.935-8.068-77.261 18.236l-96.568 156.102s-6.807 107.539-2.143 110.442a55.864 55.864 0 0 0 27.737 8.351c18.588 1.288 36.5-7.264 47.214-22.542 1.586-2.264 119.148-193.192 119.148-193.192 16.278-26.412 8.173-61.02-18.127-77.397z" fill="#fdc068"/><path d="M390.949 203.211c-36.269 9.917-62.191-8.235-78.854 18.612l-75.507 122.052 99.376 57.607 73.498-119.293c16.601-26.957 8.324-62.267-18.513-78.977z" fill="#ea7068"/><path d="M266.969 398.094 58.104 301.481c-18.772-9.003-41.314-2.228-52.057 15.644-11.695 19.648-5.944 45.017 13.07 57.656l.205.123a41.681 41.681 0 0 0 3.869 2.613l194.514 114.817c25.274 14.936 57.87 6.513 72.807-18.813 14.936-25.326 6.556-57.966-18.717-72.902a53.197 53.197 0 0 0-4.82-2.525l-.006-.002z" fill="#fdc068"/><path d="m201.144 549.072 215.237-47.39-16.17-131.574s-209.988 37.062-263.927 40.334c-41.564 4.559-53.221 40.504-53.781 68.091-1.197 58.939 20.671 286.166 20.671 286.166l98.625-.63-.654-214.998z" fill="url(#d)"/><path d="M488.033 328.145c1.456-15.813 6.58-17.591 12.578-39.885 13.498-50.181-21.776-85.153-82.683-93.002-16.433-2.118-26.978-1.898-66.201 2.212a54.949 54.949 0 0 0-11.169 2.376c-41.645 13.385-50.453 73.473-30.969 114.929 7.728 16.443.115 22.962-2.939 29.987l-5.303 5.622c-6.123 10.402-9.754 17.66-11.757 37.74l110.898 6.855 112.238 7.261c-8.529-46.816-26.515-54.297-24.694-74.095z" fill="#ea7068"/><path d="M511.082 393.722c12.03 36.142-27.291 110.115-107.016 112.256-55.064 1.478-120.943-31.225-115.772-117.858z" fill="url(#e)"/><path d="M361.502 217.799v42.345l62.763-43.355z" fill="#dbecfd"/><path d="m437.035 206.266 1.984-98.627-64.469-8.294-12.941 114.324c-1.201 9.598 5.592 18.358 15.174 19.567.167.021.335.04.503.056 21.663 2.883 37.5-7.977 59.748-27.026z" fill="#fdc068"/><path d="m367.281 163.459 25.96 1.66-28.992 23.824z" fill="#2b2b2b"/><path d="M469.193 217.289c-33.835 14.575-61.465.504-73.965 28.827l-73.867 168.038s8.249 107.438 13.272 109.663a55.864 55.864 0 0 0 28.631 4.403c18.586-1.315 35.131-12.281 43.611-28.903 1.255-2.463 91.057-207.914 91.057-207.914 12.438-28.424-.412-61.564-28.738-74.115z" fill="#fdc068"/><path d="M469.129 215.201c-34.533 14.875-62.732.515-75.49 29.422l-57.757 131.385L442.318 419.2l56.152-128.374c12.681-29.007-.437-62.819-29.34-75.626z" fill="#ea7068"/><path d="m367.422 422.946-226.945-38.141c-20.481-3.736-40.44 8.741-46.092 28.813-6.102 22.036 6.132 44.992 27.805 52.172l.23.065a41.508 41.508 0 0 0 4.421 1.501l217.9 59.485c28.317 7.746 57.54-8.971 65.273-37.339 7.732-28.368-8.955-57.644-37.272-65.39a53.056 53.056 0 0 0-5.315-1.165h-.006z" fill="#fdc068"/><g fill="#2b2b2b"><path d="M178.424 481.824c-.131 0-.264-.017-.396-.053l-50.796-13.867a42.476 42.476 0 0 1-4.438-1.501l-.148-.042c-22.173-7.344-34.614-30.688-28.39-53.163 5.802-20.608 26.031-33.252 47.053-29.417l147.833 24.42a1.5 1.5 0 0 1-.489 2.959l-147.858-24.424c-19.516-3.56-38.271 8.165-43.65 27.268-5.795 20.927 5.791 42.668 26.378 49.489l.161.043c.053.015.105.033.156.053a39.547 39.547 0 0 0 4.189 1.422l50.79 13.865a1.5 1.5 0 0 1-.394 2.947zm275.588-87.195a1.5 1.5 0 0 1-1.357-2.137l37.602-80.212a1.5 1.5 0 1 1 2.716 1.274l-37.602 80.212a1.5 1.5 0 0 1-1.359.864zm-164.42-5.005a1.5 1.5 0 0 1-1.495-1.649c1.951-19.551 4.535-27.817 12.024-38.454.515-.731 1.08-1.502 1.676-2.313 5.501-7.491 13.036-17.751 6.435-31.795-3.704-7.88-6.435-16.465-8.119-25.515a1.5 1.5 0 0 1 2.949-.549c1.637 8.799 4.29 17.138 7.884 24.787 7.36 15.658-1.12 27.206-6.732 34.847a147.94 147.94 0 0 0-1.641 2.264c-6.407 9.101-9.419 16.257-11.492 37.026a1.5 1.5 0 0 1-1.491 1.351zm471.405 374.594-11.67-20.903-68.919-123.448c-4.229-7.514-13.688-10.293-21.312-6.26l-18.479 9.7 50.786 88.671a17.85 17.85 0 0 0 2.752 3.725l37.519 40.137 16.57 17.726c6.438 7.134 17.28-.917 12.753-9.347zM20.06 775.615l165.315 1.63c8.623.055 15.727-6.78 16.007-15.399l.744-20.857-102.184.113c-1.55-.02-3.096.162-4.599.542L18.27 759.907c-9.388 2.051-7.775 15.459 1.79 15.709z"/></g><path d="m364.388 168.213 39.718-2.905c20.466-1.527 35.809-19.375 34.279-39.875l-4.652-59.947c-2.638-32.873-31.229-57.503-64.072-55.198-32.811 2.551-57.346 31.218-54.849 64.088l4.168 54.86c1.852 23.286 22.15 40.71 45.407 38.977z" fill="#fdc068"/><path d="M337.415 130.185c4.579-1.073 6.736-5.353 6.826-5.535a1.912 1.912 0 1 0-3.428-1.692c-.015.028-1.476 2.85-4.272 3.504-2.085.49-4.523-.316-7.239-2.389a1.91 1.91 0 0 0-2.68.36 1.914 1.914 0 0 0 .36 2.68c3.079 2.35 6.046 3.457 8.842 3.301a9.414 9.414 0 0 0 1.591-.228zm-20.3-40.613a5.851 5.851 0 1 1 .649 11.685c-.203.011-.396-.018-.595-.027l-.727-11.553c.223-.039.441-.093.672-.106z" fill="#2b2b2b"/><circle cx="353.165" cy="95.322" fill="#2b2b2b" r="5.851"/><path d="M336.3 113.034a1.913 1.913 0 0 0-.958-2.529l-4.672-2.105-.037-.027c-.477-.348-.798-.825-.904-1.347-.068-.34-.071-.854.34-1.421l6.198-9.126a1.912 1.912 0 1 0-3.163-2.149l-6.163 9.074a5.514 5.514 0 0 0-.962 4.379c.296 1.463 1.148 2.77 2.402 3.683l5.388 2.528c.29.13.596.183.891.167a1.917 1.917 0 0 0 1.64-1.126zm96.41-55.67-.002-.001c1.254-2.043-6.92-8.436-6.386-10.91 2.526-11.739-.822-8.451-12.604-10.936-5.13-1.082-5.248-10.965-9.574-8.735a21.691 21.691 0 0 0-16.829-16.993c-8.546-1.803-16.977 1.665-21.94 8.179a21.623 21.623 0 0 0-10.38-5.425c-11.782-2.485-23.382 5.017-25.91 16.757a21.68 21.68 0 0 0-.402 2.922c-10.181-.111-19.387 6.925-21.604 17.227-2.526 11.739 4.976 23.27 16.758 25.756 9.269 1.955 18.404-2.287 23.119-9.896a22.831 22.831 0 0 0 15.517 11.685c6.243 1.317 12.435-.032 17.388-3.269-.125 5.085 1.48 9.934 4.346 13.892 2.796-5.796 8.53-9.992 15.425-10.497 10.233-.75 19.117 6.902 19.843 17.092.665 9.357-5.788 17.581-14.772 19.446 1.743 8.106 8.08 14.838 16.751 16.666 11.782 2.484 23.381-5.018 25.909-16.758 1.488-6.914-.521-13.738-4.814-18.703 3.389-2.98 5.902-7.007 6.922-11.744 2.524-11.737-4.979-23.27-16.761-25.753z" fill="#2b2b2b"/><path d="m397.893 54.897 35.291 2.082-.108-1.449C430.538 22.65 402.023-2.068 369.173.137c-18.539 1.385-34.45 11.117-44.36 25.246 7.825.159 16.271 1.21 24.943 3.261 21.834 5.164 39.61 15.326 48.137 26.253z" fill="#be6361"/><path d="M314.766 49.992a59.599 59.599 0 0 1 10.047-24.609c-22.12-.45-41.162 5.64-43.312 16.285-1.324 6.557 4.747 20.779 33.173 30.147l-.545-7.758a59.986 59.986 0 0 1 .637-14.065z" fill="#ea7068"/><path d="M397.893 54.897c-8.527-10.927-26.303-21.089-48.137-26.253-8.672-2.051-17.119-3.101-24.943-3.261a59.604 59.604 0 0 0-10.047 24.609l83.127 4.904z" fill="#ea7068"/><path d="M314.674 71.815s9.965-19.805 80.052-17.105l-85.418-15.337-3.65 28.028z" fill="#ea7068"/></svg></g><g transform="translate(260.0 2370.0) rotate(0.0 333.0 260.0) scale(2.661732204162054 2.6552287581699345)"><svg width="250.213" height="195.84" viewBox="0 0 250.213 195.84"><linearGradient id="f" gradientUnits="userSpaceOnUse" x1="0" x2="250.213" y1="51.84" y2="51.84"><stop offset="0" stop-color="#f9d5ff"/><stop offset=".17" stop-color="#f9d5fc"/><stop offset=".32" stop-color="#f9d5f1"/><stop offset=".45" stop-color="#fad6e0"/><stop offset=".58" stop-color="#fbd7c7"/><stop offset=".71" stop-color="#fcd8a7"/><stop offset=".83" stop-color="#fdd97f"/><stop offset=".95" stop-color="#feda52"/><stop offset="1" stop-color="#ffdb40"/></linearGradient><path d="M170.331 39.583a1.5 1.5 0 0 1-1.5-1.5V13.022C168.831 7.496 164.335 3 158.809 3H90.458c-5.526 0-10.022 4.496-10.022 10.022v25.061a1.5 1.5 0 0 1-3 0V13.022C77.436 5.842 83.278 0 90.458 0h68.35c7.181 0 13.023 5.842 13.023 13.022v25.061a1.5 1.5 0 0 1-1.5 1.5z" fill="#2b2b2b"/><path d="M234.596 195.84H15.617l-10-144h238.979z" fill="#d68cdc"/><path d="M0 34.989h250.213v33.702H0z" fill="url(#f)"/><rect fill="#3a3a3a" height="22.285" rx="2.635" width="31.149" x="164.702" y="57.698"/><rect fill="#3a3a3a" height="22.285" rx="2.635" width="31.149" x="53.191" y="57.698"/><path d="M111.433 124.636a6.063 6.063 0 0 0 .158 2.99l7.749 26.62a3.23 3.23 0 0 0 3.966 2.188 3.183 3.183 0 0 0 2.293-3.056l-.057-18.23 9.338 1.792.02.004a7.016 7.016 0 0 0 8.21-5.572c.134-.697.164-1.41.089-2.115l-2.241-19.573-.009-.08a6.988 6.988 0 0 0-7.79-6.081 7.097 7.097 0 0 0-6.249 7.746l1.148 10.035-8.2-1.573-.904-.194a6.45 6.45 0 0 0-7.521 5.099z" fill="#fde545"/></svg></g><g transform="translate(650.0 1348.0) rotate(0.0 165.0 250.0) scale(2.7227722772277225 2.717391304347826)"><svg width="121.2" height="184" viewBox="0 0 121.2 184"><linearGradient id="g" gradientUnits="userSpaceOnUse" x1="2194.866" y1="-7738.359" x2="2210.448" y2="-7858.436" gradientTransform="matrix(0.8576 -0.5143 0.5143 0.8576 2165.4524 7869.6914)"><stop offset="0" style="stop-color:#9774ac"/><stop offset=".4" style="stop-color:#47a6d3"/><stop offset=".5" style="stop-color:#a7a7ae"/><stop offset=".59" style="stop-color:#e89ac0"/><stop offset="1" style="stop-color:#bfe7d1"/></linearGradient><path d="m64.6 70.1-9.4 5.7-33.8-56.3-2.2-9L9.7 0 0 5.8l4.8 13.3 6.9 6.2 33.8 56.3-9.5 5.6c-1.7 1-2.2 3.1-1.2 4.8l3.4 5.6.5-.3c2.3-1.4 5.2-.5 6.3 1.9l.2.3c5.5 11.6 16.3 34.2 21.2 43.2 4.4 8.2 19.1 31.8 19.1 31.8 5.5 9.1 17.3 12.1 26.4 6.6s12.1-17.3 6.6-26.4c0 0-14.1-24.4-19.3-32.2-5.6-8.5-20.6-28.8-28.1-38.9-1.5-2.1-.9-5.1 1.3-6.5l.5-.3-3.4-5.6c-1.1-1.5-3.3-2.1-4.9-1.1z" style="fill:url(#g)"/><path d="M9.7 0 0 5.8l2.6 7.4L15 5.8 9.7 0z" style="fill:#f9d5ff"/></svg></g><g transform="translate(872.0 1654.0) rotate(0.0 80.0 45.0) scale(2.8630222778921 2.7791501976284585)"><svg width="55.885" height="32.384" viewBox="0 0 55.885 32.384"><ellipse cx="27.942" cy="16.192" fill="#fdc068" rx="16.085" ry="28.002" transform="matrix(.08028591 -.99677188 .99677188 .08028591 9.559 42.744)"/></svg></g><g transform="translate(270.0 2884.0) rotate(0.0 1282.0 4.0) scale(2.668290119313363 2.6666666666666665)"><svg width="960.915" height="3" viewBox="0 0 960.915 3"><path d="M959.415 3H1.5a1.5 1.5 0 1 1 0-3h957.915a1.5 1.5 0 0 1 0 3z" fill="#2b2b2b"/></svg></g></svg>