<svg xmlns="http://www.w3.org/2000/svg" viewBox="0 0 1600 1200" width="1600" height="1200"><g transform="translate(151.0 165.0) rotate(0.0 656.5 399.5) scale(2.3488624207057676 2.3496199144256074)"><svg width="558.994" height="340.055" viewBox="0 0 558.994 340.055"><path d="M6.024 4.92h275.947v330.215H6.024z" fill="#d6d7dd"/><path d="M287.995 340.055H0V0h287.995zM16.997 326.174h254.002V13.881H16.997z" fill="#e4e4e8"/><path d="M6.024 107.973h275.947v13.881H6.024zm0 107.972h275.947v13.881H6.024z" fill="#e4e4e8"/><path d="M166.699 42.379h89.467v65.594h-89.467z" fill="#f6f6f8"/><path d="M168.861 43.964h85.145v62.425h-85.145z" fill="#f6f6f8"/><g fill="#edeef0"><path d="M166.699 48.159h13.094v5.724h-13.094zm57.827 45.05h9.199v7.513h-9.199zm13.38 0h9.199v7.513h-9.199zm-32.774-50.83h12.601v20.582h-12.601z"/></g><path d="M39.459 260.58h89.467v65.594H39.459z" fill="#f6f6f8"/><path d="M41.621 262.164h85.145v62.425H41.621z" fill="#f6f6f8"/><path d="M39.459 266.36h13.094v5.724H39.459z" fill="#edeef0"/><path d="M97.286 266.36h22.579v14.803H97.286z" fill="#fafafa" opacity=".64"/><path d="M110.666 311.409h9.199v7.513h-9.199zM77.893 260.58h12.601v20.582H77.893z" fill="#edeef0"/><path d="M136.381 239.143h118.707v87.031H136.381z" fill="#f6f6f8"/><path d="M139.248 241.245H252.22v82.826H139.248z" fill="#f6f6f8"/><path d="M136.381 246.811h17.374v7.594h-17.374z" fill="#edeef0"/><path d="M213.107 246.811h29.958v19.64h-29.958z" fill="#fafafa" opacity=".64"/><path d="M213.107 306.584h12.205v9.968h-12.205zm17.752 0h12.205v9.968h-12.205z" fill="#eaeaea"/><path d="M187.375 239.143h16.719v27.309h-16.719z" fill="#eae9e8"/><path d="M26.603 150.352h155.445v65.594H26.603z" fill="#f6f6f8"/><path d="M28.764 151.936h151.123v62.425H28.764z" fill="#f6f6f8"/><path d="M26.603 156.131h13.094v5.724H26.603z" fill="#edeef0"/><path d="M150.408 156.131h22.579v14.803h-22.579z" fill="#edeef0" opacity=".64"/><path d="M98.025 150.352h12.601v20.582H98.025z" fill="#eae9e8"/><path d="M51.646 32.856h102.457v75.117H51.646z" fill="#f6f6f8"/><path d="M54.121 34.67h97.507v71.488H54.121z" fill="#f6f6f8"/><path d="M51.646 39.474h14.995v6.555H51.646zm66.223 51.591h10.535v8.603h-10.535zm-22.21-58.209h14.431v23.571H95.659z" fill="#edeef0"/><path d="M191.011 133.485h72.05v82.46h-72.05z" fill="#f5f5f5"/><path d="M192.752 134.761h68.569v79.908h-68.569z" fill="#f5f5f5"/><path d="M191.011 138.139h10.545v4.609h-10.545z" fill="#eaeaea"/><path d="M237.581 138.139h18.183v11.921h-18.183z" fill="#fafafa" opacity=".64"/><path d="M237.581 204.055h7.408v6.05h-7.408z" fill="#eaeaea"/><path d="M221.962 133.485h10.148v16.576h-10.148z" fill="#eae9e8"/><path d="M277.023 4.92H552.97v330.215H277.023z" fill="#d6d7dd"/><path d="M558.994 340.055H270.999V0h287.995zm-270.999-13.881h254.002V13.881H287.995z" fill="#e4e4e8"/><path d="M277.023 107.973H552.97v13.881H277.023zm0 107.972H552.97v13.881H277.023z" fill="#e4e4e8"/><path d="M287.758 249.048h182.774v77.126H287.758z" fill="#f6f6f8"/><path d="M290.3 250.911h177.692v73.4H290.3z" fill="#f6f6f8"/><path d="M287.758 255.844h15.396v6.73h-15.396z" fill="#eaeaea"/><path d="M433.329 255.844h26.548v17.405h-26.548z" fill="#fafafa" opacity=".64"/><path d="M433.329 308.814h10.816v8.834h-10.816z" fill="#eaeaea"/><path d="M371.737 249.048h14.816v24.201h-14.816z" fill="#eae9e8"/><path d="M396.907 140.828h102.457v75.117H396.907z" fill="#f6f6f8"/><path d="M399.382 142.643h97.507v71.488h-97.507z" fill="#f6f6f8"/><path d="M396.907 147.447h14.995v6.555h-14.995zm81.545 51.59h10.535v8.603h-10.535zm-37.532-58.209h14.431v23.571H440.92z" fill="#edeef0"/><path d="M336.156 25.874h111.98v82.099h-111.98z" fill="#f6f6f8"/><path d="M338.861 27.857h106.57v78.133h-106.57z" fill="#f6f6f8"/><path d="M336.156 33.108h16.389v7.164h-16.389zm72.378 56.385h11.514v9.403h-11.514zM384.26 25.874h15.772v25.762H384.26z" fill="#edeef0"/><path d="M308.139 173.418h60.699v42.527h-60.699z" fill="#f6f6f8"/><path d="M309.605 174.493h57.766v40.377h-57.766z" fill="#f6f6f8"/><path d="M308.139 177.339h8.884v3.883h-8.884z" fill="#eaeaea"/><path d="M347.371 205.929h6.241v5.097h-6.241z" fill="#edeef0"/><path d="M334.214 173.418h8.549v13.964h-8.549z" fill="#eae9e8"/><path d="M296.593 131.673h60.699V174.2h-60.699z" fill="#f6f6f8"/><path d="M298.059 132.748h57.766v40.377h-57.766z" fill="#f6f6f8"/><path d="M296.593 135.594h8.884v3.883h-8.884z" fill="#edeef0"/><path d="M335.825 164.183h6.241v5.097h-6.241z" fill="#eaeaea"/><path d="M344.903 164.183h6.241v5.097h-6.241zm-22.236-32.51h8.549v13.964h-8.549z" fill="#edeef0"/></svg></g><g transform="translate(821.0 257.0) rotate(0.0 200.5 398.0) scale(2.013274558435169 2.016757327847213)"><svg width="199.178" height="394.693" viewBox="0 0 199.178 394.693"><path d="m190.452 28.285-27.32 51.293a5.008 5.008 0 0 1-7.106 1.874l-13.007-8.257 13.603-21.428 19.948-24.984z" fill="#c78982"/><path d="m69.645 308.881-22.419 35.448-7.636 12.076-4.17 6.596-1.235 1.952-3.991 6.309-1.967 3.112-2.99 4.733-.173.271-7.143.194c-1.692.048-3.485.097-5.142.149-.935.024-1.823.053-2.628.077-2.064.061-3.56.113-3.756.129l.266-.586.751-1.661 5.896-13.058 6.615-14.646 14.11-47.588a23.78 23.78 0 0 1 2.552-5.712l20.409-33.132 27.544-.812-11.841 39.571c-.662 2.205-1.693 4.427-3.052 6.578z" fill="#013b84"/><path d="m133.637 175.2 1.117 14.992-13.415 17.663-45.176 82.288s-30.987-5.918-30.785-6.444l41.551-107.386z" fill="#013b84"/><path d="m35.419 363.001-1.232 1.951-3.992 6.311-1.966 3.112-2.992 4.73-.172.273s-3.307.086-7.142.191c-1.693.049-3.483.097-5.142.15-.933.026-1.82.052-2.629.079-2.064.06-3.558.112-3.753.127l.262-.584.753-1.663 5.895-13.056 2.835-6.277z" fill="#c78982"/><path d="M.076 389.527h24.107l1.329-3.707a18.722 18.722 0 0 0 .851-9.355l-.683-4.157-9.776-5.51-9.837 5.51-4.916 7.773a7.442 7.442 0 0 0-1.152 4.082z" fill="#016eea"/><path d="M3.997 394.693h16.608c.936 0 1.767-.511 2.068-1.27l1.681-4.24H.248l1.681 4.24c.301.759 1.133 1.27 2.068 1.27z" fill="#93c3ff"/><path d="M12.38 364.671h10.03c1.034 0 1.704.838 1.496 1.873l-1.946 9.686c-.208 1.034-1.215 1.873-2.249 1.873H9.682c-1.034 0-1.704-.838-1.496-1.873l1.946-9.686c.207-1.034 1.214-1.873 2.248-1.873z" fill="#016eea"/><path d="M14.023 386.427h-3.444a2.59 2.59 0 0 0-2.583 2.583 2.59 2.59 0 0 0 2.583 2.583h3.444a2.59 2.59 0 0 0 2.583-2.583 2.59 2.59 0 0 0-2.583-2.583z" fill="#93c3ff"/><path d="m192.191 13.589.738 8.27c-.392 4.267-3.088 7.831-6.841 9.532-.802.378-1.642.65-2.529.838-.161-.007-.314-.034-.456-.052l-.507-.068-12.525 2.747 11.715-14.919.106-1.276a3.91 3.91 0 0 0 .399-.513l4.908-7.178c.528-.769 4.992 2.619 4.992 2.619z" fill="#c78982"/><path d="M44.716 386.763v.004c-.028 0-.024-.004 0-.004z" fill="#29abe2"/><path d="M162.937 75.683a4.506 4.506 0 0 1-1.632 6.222l-35.827 20.485c-5.856 3.497-13.438 1.585-16.936-4.271l-.953-1.596a7.704 7.704 0 0 1 2.664-10.565l43.802-25.146zm-115.579 88.99 17.627-46.867a4.646 4.646 0 0 1 5.984-2.713l16.162 6.079-19.262 51.216a6 6 0 0 1-7.728 3.504l-9.279-3.49a6.001 6.001 0 0 1-3.504-7.729z" fill="#2888ff"/><path d="m66.366 136.289-2.324-8.236a19.999 19.999 0 0 1 7.17-21.372l51.368-31.98 14.64 92.306-42.937 5.338z" fill="#2888ff"/><path d="m73.722 310.014-6.416 35.098-2.187 11.957-1.196 6.531-.353 1.933-1.141 6.247-.564 3.081-.86 4.686-.048.268 6.97.664c1.649.16 3.398.326 5.009.487.913.086 1.776.173 2.56.25 2.01.196 3.46.347 3.643.375l.211-.573.599-1.624 4.721-12.77 5.293-14.324 16.351-41.912 11.985-29.588-23.83-15.643-18.449 38.419c-1.133 2.134-1.908 4.31-2.298 6.438z" fill="#c78982"/><path d="m140.894 177.72-.109 25.764-22.47 80.232c-1.611 6.121-8.31 9.353-14.102 6.801-7.46-3.286-15.948-7.094-15.902-7.387l11.034-106.89z" fill="#013b84"/><path d="m104.78 389.253 4.399-2.62c1.213-.723 2.057-1.958 2.244-3.284.274-1.949-.927-3.602-2.818-3.878l-8.342-1.216c-5.272-.769-9.621-3.836-11.919-8.407l-2.751-5.472-3.66 2.059c-.882.496-1.337 1.523-1.057 2.387l.801 2.472-5.018 1.97c-3.399 1.334-7.004.72-9.286-1.583l-3.524-3.555c-.617-.623-1.795-.156-1.976.784l-3.079 15.996.434 3.765z" fill="#016eea"/><path d="m82.799 185.962 58.036 10.949.059-53.225c-.159-13.37-4.868-68-4.868-68l-45.622 37.361-1.362 54.395z" fill="#2888ff"/><path d="m57.412 385.959.523 1.583c.942 2.848 3.552 4.665 6.7 4.665h33.473a4.15 4.15 0 0 0 1.905-.481l7.997-4.17H80.448c-.488 0-.93-.191-1.232-.531-1.516-1.71-3.736-2.668-6.188-2.668H58.654c-.824-.001-1.489.856-1.242 1.602z" fill="#93c3ff"/><path d="m93.565 72.225 20.745.013-.025 42.42c-.001 1.913-2.429 2.733-3.59 1.212L93.55 93.401zM198.882 6.42c-.057-.005-.279-.083-.279-.083s-2.899-.759-2.897-.745a99.733 99.733 0 0 0-1.469-.353 2.759 2.759 0 0 0-.966-.09c-.976.023-3.223.156-4.148.241-.811.096-1.519.316-2.187.712-1.154.505-5.326 2.77-5.326 2.77l1.785 5.75 2.792-2.976 4.286 3.783s.385.781 1.166 2.229 3.456 1.642 2.953.276l-.763-2.248-.021.017a15.285 15.285 0 0 1-.302-.849 2.898 2.898 0 0 0-.442-.787c-.349-.421-.887-1.151-1.392-1.83l1.06.482s.737.699 1.988 2.02c1.251 1.32 4.176.678 3.266-.611l-1.528-2.034c-.257-.311-.406-.554-.715-.926a3.034 3.034 0 0 0-.731-.757 133.773 133.773 0 0 0-2.204-1.619l1.104-.088 2.091.311c.511.047 1.028.039 1.503-.146 1.484-.548 2.082-2.039 1.376-2.449z" fill="#c78982"/><path d="M198.882 6.42c-.057-.005-.279-.083-.279-.083s-2.899-.759-2.897-.745a99.733 99.733 0 0 0-1.469-.353 2.759 2.759 0 0 0-.966-.09c-.976.023-3.223.156-4.148.241-.811.096-1.519.316-2.187.712-1.154.505-5.326 2.77-5.326 2.77l1.785 5.75 2.792-2.976 4.286 3.783s.385.781 1.166 2.229 3.456 1.642 2.953.276l-.763-2.248-.021.017a15.285 15.285 0 0 1-.302-.849 2.898 2.898 0 0 0-.442-.787c-.349-.421-.887-1.151-1.392-1.83l1.06.482s.737.699 1.988 2.02c1.251 1.32 4.176.678 3.266-.611l-1.528-2.034c-.257-.311-.406-.554-.715-.926a3.034 3.034 0 0 0-.731-.757 133.773 133.773 0 0 0-2.204-1.619l1.104-.088 2.091.311c.511.047 1.028.039 1.503-.146 1.484-.548 2.082-2.039 1.376-2.449z" fill="#002652" opacity=".1"/><path d="M191.441 12.244s1.409-3.42 2.684-6.624c1.274-3.204-1.926-3.905-3.342-1.631l-3.777 6.063z" fill="#c78982"/><path d="m195.3.011-.057-.006-.057-.005-.034.007-2.549.038c-.806.039-1.55.027-2.066.035-.346.025-.635.055-.992.193-.946.313-3.019 1.035-3.908 1.353-.714.277-1.381.672-1.894 1.255l-6.367 6.794c-1.021 1.107-1.402 2.733-.849 4.16l2.772 7.709a8.33 8.33 0 0 1-.142 6.404l8.867 4.069c.096-.133.181-.254.271-.381-.172.277-.277.437-.277.437 3.168-4.458 3.323-5.423 4.195-7.431l.327-.836c1.684-3.883-2.625-7.598-1.095-11.561l-4.418-2.237-.939 1.459c-.939 1.459-3.495 1.22-2.95.297s4.084-6.893 4.084-6.893l3.852-1.358 2.087-.263c.522-.066.998-.25 1.427-.553 1.348-.907 1.497-2.498.712-2.686z" fill="#c78982"/><path d="m168.074 76.95-5.511 5.6a2 2 0 0 1-2.828.023L144.297 67.38a2 2 0 0 1-.023-2.828l5.511-5.6a2 2 0 0 1 2.828-.023l15.438 15.193a2 2 0 0 1 .023 2.828zm-94.839 85.284-2.627 8.635c-1.558 5.12-6.972 8.008-12.092 6.45l-6.268-1.907c-4.976-1.514-7.783-6.775-6.269-11.751l2.707-8.896a2 2 0 0 1 2.496-1.331l20.722 6.305a1.998 1.998 0 0 1 1.331 2.495z" fill="#2888ff"/><path d="m97.516 60.397 24.029-8.643a13.715 13.715 0 0 0-15.051-8.904l-6.535 1.035c-4.117.652-6.624 4.89-5.213 8.812z" fill="#002652"/><path d="m106.534 50.914 1.955 5.435 4.844-1.743 6.54 18.182 1.817-.653 3.95-16.783-7.71-8.858z" fill="#002652"/><g fill="#c78982"><path d="m118.765 54.43 7.609 20.773c.824 2.484-1.012 5.049-3.629 5.071l-24.267.202z"/><path d="m121.618 67.689 3.654-1.415c1.523-.589 1.614-2.709.148-3.428l-6.415-3.143zm-19.706-21.848-.479.159a3.857 3.857 0 0 0-2.447 4.875l4.216 12.714 16.953-5.622-1.181-3.561c-2.346-7.077-9.985-10.912-17.062-8.565z"/><path d="m123.862 69.048-10.628 3.525-4.48-13.51 10.627-3.525z"/><path d="m96.495 44.841-4.987 1.794c-5.45 1.96-8.278 7.967-6.318 13.417l8.873 24.669 31.717-11.409-6.357-17.674c-3.35-9.312-13.615-14.146-22.928-10.797z"/></g><path d="m120.118 58.278-2.414.868c-.28.101-.509.309-.636.579l-.643 1.366c-.426.906.455 1.875 1.397 1.536l2.921-1.051" fill="#002652" opacity=".1"/><path d="m108.348 66.671 1.344 3.737a9.167 9.167 0 0 0 8.065 6.047 5.201 5.201 0 0 1 3.133-6.654l3.212-1.155 3.602 10.014c.893 2.483-.994 5.087-3.632 5.011l-10.456-.301a3.744 3.744 0 0 1-3.416-2.476l-5.782-16.073a3.07 3.07 0 0 1 3.93 1.85z" fill="#002652"/><path d="m122.42 75.55 2.629-.313a1.095 1.095 0 0 0 .901-1.457l-1.055-2.934-2.326.837a2.397 2.397 0 0 0-1.444 3.067c.191.535.729.867 1.295.8z" fill="#c78982"/><path d="m109.731 42.982 4.022 11.181a4.183 4.183 0 0 1-2.52 5.352l-3.968 1.427a4.041 4.041 0 0 0-2.435 5.171l3.353 9.323a3.641 3.641 0 0 1-4.976 4.526l-18.215-8.578a2.02 2.02 0 0 1-.967-2.689l5.798-16.128a13.35 13.35 0 0 1 11.31-8.775z" fill="#002652"/><path d="M97.316 44.536 86.159 48.55c-5.806 2.089-8.82 8.489-6.732 14.295l6.8 18.904a1.873 1.873 0 0 0 2.007 1.223l21.868-2.89z" fill="#002652"/><path d="m96.696 63.266.326-.117a4.809 4.809 0 0 1 6.153 2.898l3.136 8.72-4.419-.911a6.145 6.145 0 0 1-4.203-3.168l-2.228-4.256a2.255 2.255 0 0 1 1.235-3.166z" fill="#c78982"/><path d="m35.525 362.83-18.406-4.673 31.495-60.465 23.044 7.351-24.623 52.352a10.002 10.002 0 0 1-11.51 5.435zm49.674-1.567-20.204-2.259 28.134-80.536 23.622 5.205L95.9 354.162a10.002 10.002 0 0 1-10.701 7.101z" fill="#013b84"/><path d="m87.831 358.068 2.132-5.769 16.351-41.912 11.985-29.588-23.83-15.644-18.449 38.419c-1.132 2.136-1.908 4.312-2.298 6.439l-6.416 35.099-2.187 11.956-.183.999h22.895z" fill="#013b84"/><path d="m95.856 169.194-37.879-11.947a4.936 4.936 0 0 0-5.157 1.409l-2.778 3.091a8.194 8.194 0 0 0 .618 11.572l3.937 3.538a4.932 4.932 0 0 0 3.249 1.264l30.666.313z" fill="#c78982"/><path d="M126.544 179.87v.011a.491.491 0 0 1-.404.556l-8.828 1.404a6.498 6.498 0 0 1-2.847-.18l-4.06-1.146-2.336 1.191a3.679 3.679 0 0 1-2.639.281l-7.626-2.016-.062-.017a8.065 8.065 0 0 0-.803-.146l.006-.011-16.263-2.578 11.158-7.16c2.016-2.319 3.65-2.454 5.835-2.651l3.841-.337a7.803 7.803 0 0 1 4.021.842 8.94 8.94 0 0 0 2.409.854c2.375.505 6.099 1.376 6.099 1.376a1.465 1.465 0 0 1 1.016 1.398v.14a1.426 1.426 0 0 1-1.527 1.314c-.792-.051-5.515-.303-6.992-.354h-.011a.572.572 0 0 0-.539.371.536.536 0 0 0 .174.612l1.46 1.14 8.817 3.701 8.188-.124a1.932 1.932 0 0 1 1.909 1.499z" fill="#c78982"/></svg></g><g transform="translate(1238.0 271.0) rotate(0.0 82.5 74.0) scale(1.7440754286197493 1.7426320809146463)"><svg width="94.606" height="84.929" viewBox="0 0 94.606 84.929"><path d="M0 0h94.606v84.929H0z" fill="#68abff"/><path d="M2.285 2.052H92.32v80.826H2.285z" fill="#93c3ff"/><path d="M0 7.483h13.846v7.411H0zm4.287 22.152L26.976 22.2l5.968 18.214-22.69 7.435z" fill="#d4e7ff"/><g fill="#2888ff"><path d="m8.932 37.087 17.45-5.718.276.844-17.45 5.718zm.761 2.316 14.36-4.705.276.844-14.36 4.705zm-2.481-7.568 2.408-.789.789 2.408-2.408.79zm3.522-1.154 2.408-.789.789 2.408-2.408.79zM40.64 0h13.325v26.649H40.64z"/></g></svg></g><g transform="translate(698.0 345.0) rotate(0.0 -177.0 369.5) scale(-2.3076923076923075 2.3180677540777914)"><svg width="153.4" height="318.8" viewBox="0 0 153.4 318.8"><path d="M65.3 174.6c-.3 0-.5-.2-.5-.5v-39.9c0-.3.2-.5.5-.5s.5.2.5.5v39.9c0 .3-.2.5-.5.5z" fill="#53a0ff"/><path d="M66.3 177.2h-1.9c-.6 0-1-.6-.7-1.2l1-1.9c.3-.6 1.1-.6 1.4 0l1 1.9c.2.6-.2 1.2-.8 1.2z" fill="#53a0ff"/><path d="M108.4 110.8H64.8l3-33.2 10.6-24.8 39-.2z" fill="#016eea"/><path d="m98.8 43.1-6.4 21.3-14-34.9 6.8-2.7 6-2.4s2.1 5.3 2.5 6.3z" fill="#99644c"/><path d="m75.5 48.6 28.9-6.6c8.4-1.9 15.7 5.9 13.3 14.1l-2.4 8z" fill="#016eea"/><path d="m133.7 302.1-10.4 3.6-3.6-10.4c-.7-1.9.3-3.9 2.2-4.6l3.6-1.2c1.9-.7 3.9.3 4.6 2.2z" fill="#2888ff"/><path d="M120.7 300.9s-2 7.2-2.9 8c-1.1.9-4.3 3.7-4.3 3.7l-2.3.6-.2 5.3 3.7-.4 13.3-7.8z" fill="#7eb8ff"/><path d="m112.6 208 15.1 30.8c.7 1.5 1.3 3.2 1.5 4.8l8.6 60.1s-11.9 2.6-11.4 2.4L104 246.4 99.9 218z" fill="#99644c"/><path d="m123.1 310.5 18.5-2.4-.3-2.6c-.4-2.6-1.3-5-2.6-7.3l-2.5-4.4-14.6 8.3z" fill="#7eb8ff"/><path d="m136.4 292.6 1.2 7.1c-.4.1-10.5 8-10.7 8.4l-1.5 2.1-5.4-7 1.7-6.4c.3-1 1.2-1.8 2.2-2z" fill="#7eb8ff"/><ellipse cx="125" cy="303.3" fill="#a9cfff" rx="3.4" ry="1.6" transform="matrix(-.1672 -.9859 .9859 -.1672 -153.1093 477.2092)"/><path d="m123.4 312.1-11.8 6.6h18l12-7.4c.6-.4.3-1.3-.4-1.2z" fill="#016eea"/><path d="m142 310.6-.5-2.8-.1-.1c-.5-.3-1.1-.4-1.8-.4l-7.3.9c-2.3.3-4.5 1-6.6 2.2l-9.2 5.3-6.4.2.5 2.8h6l10-5.6c2-1.1 4.2-1.8 6.5-2.1l6.9-.8c.5-.1 1 0 1.5.2z" fill="#a9cfff"/><path d="m80 130.9-6.3 20.3 28 76.5s13.4-7.7 13.4-8.2l-11.4-87.7z" fill="#99644c"/><path d="m90.6 45.3-14 2.9c-5.2 1.1-8.9 5.7-8.9 11v40.7z" fill="#016eea"/><path d="M74.4 10.7h8.5v10.8h-8.5z" fill="#99644c"/><path d="M82.3 2.9h5.8v21.7h-5.8z"/><path d="m90.6 28.9-6.5 2.9V4.1c0-1.6 1.3-2.9 2.9-2.9h1.3c6.3 0 11.1 5.6 10.2 11.8l-1 6.9c-.7 3.9-3.2 7.3-6.9 9z"/><path d="M70.3 11.4v5.2c0 .2 0 .4.1.5l.7 1.7c.2.6.1 1.2-.4 1.6l-.4.4v10c0 1.6 1.3 2.9 3 2.9l18.6-.1-.1-6.3z" fill="#99644c"/><path d="M84.7 20.2H89v6.5h-4.3z" fill="#99644c"/><path d="M88.8 21.5h-6.7v-6.7h6.7c1.5 0 2.7 1.2 2.7 2.7v1.3c0 1.6-1.2 2.7-2.7 2.7z" fill="#99644c"/><path d="M76.9 9h8.7v4.5c1.4.1 2.7.2 2.9.1.3-.1-2.9 3.4-4.8 5.6-.5.6-1.5.2-1.5-.6v-2.9c0-.5-.4-.9-.9-.9h-4.4z"/><path d="M80.3 1.7h.4c1.6 0 2.9 1.3 2.9 2.9v10.2H70V12c0-5.6 4.6-10.3 10.3-10.3z" fill="#99644c"/><path d="M92.7 5.4H82.4v19.8c0 3.2 2.6 5.9 5.9 5.9h4.4z"/><path d="M85.9 2.1H73.8V9c0 3.2 2.6 5.9 5.9 5.9h6.2z"/><path d="m79.5 205.3 1.8 34c.1 1 .2 2 .4 2.9l14.6 61h13.6l-3.5-63.9c-.1-1.9-.5-3.7-1.2-5.4l-10-24.1z" fill="#99644c"/><path d="M68.3 121.2 63.4 140c-.3 1-.3 2 0 3l16.7 71.6s16.5 1.4 16.5.9l-2.8-51.7-1.7-41.8z" fill="#99644c"/><path d="M94.8 305h3.9l-1.3-7.3c-.2-1.3-1.4-2.3-2.8-2.3H93z" fill="#a9cfff"/><path d="M96.3 303h13.4v4.9H96.3z" fill="#99644c"/><path d="M93.8 316.2h18.8v-1.9c0-2.6-.4-5.1-1.3-7.6l-1.7-4.7-15.8 5.8z" fill="#7eb8ff"/><path d="M109.9 300.8v7.2c-.4 0-11.7 6.1-12 6.4l-1.8 1.8h-22l.7-2c.4-1 1.2-1.8 2.3-2.1l11.6-2.8c2.2-.5 4.1-1.8 5.5-3.6l2.7-3.6c.6-.8 1.6-1.3 2.6-1.3z" fill="#7eb8ff"/><path d="M74.1 315.9h38.6v2.9H74.1z" fill="#a9cfff"/><circle cx="105.3" cy="310" fill="#a9cfff" r="3.4"/><path d="M113.3 202.7H76l-13.3-59.2h51.1z" fill="#3d94ff"/><path d="M108.4 110.3H64.8l-2.1 33.2h51.1z" fill="#016eea"/><path d="M74.7 34.3h5.5v-14h-8.4c-1.2 0-2.2 1-2.2 2.2v6.7c-.1 2.8 2.2 5.1 5.1 5.1z" fill="#99644c"/><path d="m72.2 42.3 29.7-8.5c1.2-.3 2-1.4 2-2.7V11.2C103.9 5 98.9 0 92.7 0H81.2c-5 0-9 4-9 9z" fill="#002652"/><path d="M69.1 14.9h20.5V0h-9.8C73.4 0 68 5.3 68 11.9v1.9c0 .6.5 1.1 1.1 1.1z" fill="#002652"/><g fill="#99644c"><path d="m148.6 36.6-6.9 1.3v43.6c0 2.9 2.3 5.2 5.1 5.3 2.8.1 5.2-2 5.5-4.7l1-9.8c.2-1.7.1-3.4-.1-5.1zM12.4 108.9l-1.7.9-1.1.6-5.7-3.6c-.2-.1-.3-.4-.2-.6.4-.5 1.1-.7 1.9-.5l.5.2z"/><path d="m12.7 108.1.5.3h-.1l-.8.4-1.7.9-4.4-3.7-.4-.4c-.2-.1-.2-.4-.1-.6.4-.5 1.2-.6 1.9-.2z"/><path d="m15.6 107.2-2.4 1.3h-.1l-.4-.4-4-3.3c-.2-.1-.2-.4-.1-.6.4-.5 1.2-.6 1.9-.2zm134-72.9-.1 8.4-4.3-2-.3-.1c-1.2-.2-2.3-.7-3.2-1.4s-1.7-1.5-2.3-2.6L133.1 26c-.2-.2-.1-.5.1-.7l.1-.1c.5-.4 1.2-.3 1.6.2l3.9 4c.2.2.4.3.6.3.7.2 1.4-.2 1.6-.9l2.9-8.5 1.6.9c.7.4 1.2 1.2 1.3 2 0 .7.1 1.3.3 2l1.7 5.9c.1.5.3.9.6 1.3.1.8.2 1.3.2 1.9z"/><path d="M145.4 11.7c-.7.1-1.3.7-1.4 1.5l-.9 12.6 3.6 2-.9-15.7c0-.2-.2-.4-.4-.4z"/></g><path d="m149.2 74.1-19.8-14.5L115 45.3l-5.6 19.1 26.4 15.9 6.3 4.1c2.9 1.9 6.8 1 8.6-1.9 1.8-2.8 1.1-6.5-1.5-8.4z" fill="#016eea"/><path d="M92.3 202.7h-1.2c-2.9 0-5.3-2.2-5.6-5.1l-1.8-21.2v21.1c0 2.9-2.3 5.2-5.2 5.2v5.1h13.8zM19.4 101.5l2.5-6.5 46.3 8.5-2.8 8.1c-.5 1.3-1.7 2.1-3.1 2l-9.2-.8c-1.5-.1-2.9-.4-4.3-.9z" fill="#99644c"/><path d="m67.3 106.8 15.3-38.3 2-11.6-16.7 2.2-12.1 42z" fill="#016eea"/><path d="m83.6 46.8 17.4-3.9 13.9 24.9L80 76.5z" fill="#016eea"/><path d="m89.5 47.2 9-3.1c.3-.1.5-.4.3-.7l-2.3-5.7-13 4.4 1.2 2.9c.7 1.9 2.8 2.8 4.8 2.2z" fill="#99644c"/><path d="m77.8 48 24.4-5.1L117.6 53l-7.8 18c-1.6 3.7-6.5 4.6-9.3 1.6z" fill="#3d94ff"/><path d="m80.9 47.3 21-4.9L117.6 53z" fill="#53a0ff"/><path d="M10.6 104c-.7-.4-1.5-.3-1.9.2-.1.2-.1.4.1.6l4 3.3-5.2-3.3c-.7-.4-1.5-.3-1.9.2-.1.2-.1.4.1.6l.4.4-.5-.2c-.7-.3-1.5-.1-1.9.5-.1.2 0 .4.2.6l5.7 3.6 1.1-.6 1.7-.9.8-.4h.1l2.4-1.3z" fill="#1d2445" opacity=".1"/><path d="m37.7 107.7-8.9-3.2c-1.4-.6-3-.6-4.4.2l-1.3.7-5.6 3.5c-.7.4-1.4.6-2.2.4l-2.2-.4-3 1.9c-.7.4-1.4.7-2.3.8l-7.4 1c-.2 0-.4-.1-.5-.3-.1-.8.4-1.5 1.2-1.7l6.6-1.9 6.2-5.1.9-1.3c.1-.2.1-.4 0-.5-.1-.2-.3-.2-.5-.2-1.2.4-4.9 1.8-5.5 2s-1.3-.1-1.5-.7c-.2-.5 0-1.1.5-1.4 0 0 2.8-1.6 4.6-2.6.6-.3 1.2-.8 1.7-1.3.8-.8 1.9-1.4 3-1.7l3.2-.7c1.8-.4 3.6-.8 5.8.5l5.4 1.8z" fill="#99644c"/></svg></g><g transform="translate(1011.0 603.0) rotate(8.195691490554502 51.5 4.5) translate(40.0 0.0) scale(0.27369086749376226 0.2647058823529412)"><svg width="226.533" height="34" viewBox="146.15 0 226.533 34"><path d="M374.331 34H2.001a1.987 1.987 0 0 1-2-1.974v-2.047l376.336-.024s-.007 1.384 0 2a1.989 1.989 0 0 1-1.932 2.044l-.074.001z" fill="#4d99f0"/><path d="M374.331 32H2.001a2 2 0 0 1-1.078-3.685L42.701 1.577A10 10 0 0 1 48.092 0H328.24a10 10 0 0 1 5.391 1.577l41.778 26.738A2 2 0 0 1 374.331 32z" fill="#93c3ff"/></svg></g></svg>